<svg viewBox="0 0 356 273" fill="none" xmlns="http://www.w3.org/2000/svg"><path fill-rule="evenodd" clip-rule="evenodd" d="M261.733 17.04c-33.715 0-63.26 18.522-79.726 46.3l-.024-.068c-38.017 61.157-98.373 45.359-98.373 45.359l.024.086a67.008 67.008 0 00-13.811-1.435c-38.17 0-69.115 32.135-69.115 71.775 0 39.641 30.944 71.776 69.115 71.776 18.528 0 35.341-7.586 47.75-19.914 54.696-47.365 116.009-24.01 116.009-24.01l-.011-.028a90.299 90.299 0 0028.162 4.483c51.672 0 93.559-43.501 93.559-97.162 0-53.662-41.887-97.162-93.559-97.162z" fill="#EBEEF2"/><path fill-rule="evenodd" clip-rule="evenodd" d="M278.566 69.724s-7.957 3.785-6.704 11.116c0 0-2.277 22.229 14.459 21.638 0 0 16.396-.1 18.104-20.092 0 0-4.354-22.24-25.859-12.662z" fill="#FDD835"/><path fill-rule="evenodd" clip-rule="evenodd" d="M281.539 72.918s-4.326-7.804-12.296-10.524c0 0-3.34-.394-3.871 0 0 0 11.158 2.68 14.725 10.524 0 0 .759 1.064 1.442 0z" fill="#3F4756"/><path fill-rule="evenodd" clip-rule="evenodd" d="M128.745 39.535s3.491-.631 7.742 1.104c0 0 12.296-15.766 22.923-17.816 0 0 9.867-2.128 16.471-8.356 0 0 1.935 3.232-.063 5.777 0 0 7.177-3.175 8.543-7.59 0 0 3.892 4.415.401 8.75 0 0 19.583 5.203 23.834 17.343 4.25 12.139 6.983 23.648 6.983 23.648s5.014 2.83 12.825 5.125c0 0 2.925.669 2.583 7.527-.341 6.858-3.415 16.033-26.87 25.102 0 0 32.718 121.836 35.979 172.101H123.963l.911-26.109s-18.9 24.595-26.87 24.595c-7.97 0-12.297-5.748-4.555-34.682 7.743-28.932 43.038-100.02 43.038-100.02s3.643-40.532 2.732-62.997c0 0-22.771-16.397-10.474-33.502z" fill="#D1AA02"/><path fill-rule="evenodd" clip-rule="evenodd" d="M185.824 113.159s12.121 0 17.837 5.701c1.614 1.608 3.585 6.398 5.754 13.484 8.068 26.344 18.882 95.638 24.222 139.906h-75.002s4.266-111.307 5.186-126.055l-2.4 2.807s-.114-33.6 24.403-35.843z" fill="#FFFAF5"/><path fill-rule="evenodd" clip-rule="evenodd" d="M163.203 136.004s15.291-4.656 22.464-8.321c0 0 6.119-.119 10.688-.828l13.06 5.489s-3.352-13.149-6.053-17.266c0 0-24.137-1.162-34.157 6.402 0 0-4.465 6.992-6.002 14.524z" fill="#CDD5E0"/><path fill-rule="evenodd" clip-rule="evenodd" d="M152.882 64.76c2.581 18.287 23.673 13.356 36.282 6.621 0 0-.303 8.513 25.353 0 0 0 6.54-3.584 13.099-4.098 0 0-7.867-2.707-14.659-6.104 0 0-6.562-3.067-8.612-6.72 0 0-5.297-8.217 3.442-17.582 0 0-3.153-10.196-23.025-15.473 0 0 3.638-4.099-.401-8.75 0 0-3.504 4.651-8.543 7.59 0 0 2.533-2.468.063-5.777 0 0-3.725 3.966-13.264 7.441 0 0-6.039 1.381-8.725 3.019 0 0-8.221 4.36-17.405 15.712 0 0-3.795-1.656-7.742-1.104 0 0 21.557 6.936 24.137 25.225z" fill="#FDD835"/><path fill-rule="evenodd" clip-rule="evenodd" d="M207.788 36.878s-8.908 7.676-3.443 17.58c0 0 2.249 3 4.83 4.554 0 0 3.698 1.687 4.595-3.574 0 0-3.147-12.625-5.982-18.56zM158.921 45.79s-2.845 15.44 12.961 21.849c0 0 8.849 1.868 19.597-8.036 0 0 2.16-19.517-13.067-20.823-13.592-1.164-19.491 7.01-19.491 7.01z" fill="#BF8D00"/><path fill-rule="evenodd" clip-rule="evenodd" d="M230.435 69.948s-.498-2.662-2.82-2.664c-2.32-.002-8.696 1.575-13.099 4.096-4.704 2.696 2.009 13.284 9.868 10.564 7.97-2.76 6.051-11.996 6.051-11.996z" fill="#3F4756"/><path fill-rule="evenodd" clip-rule="evenodd" d="M184.361 53.125c0 5.161-4.006 9.345-8.948 9.345s-8.947-4.184-8.947-9.345c0-5.16 4.005-9.343 8.947-9.343 4.942 0 8.948 4.182 8.948 9.343zM211.073 48.951c.423 3.96-.729 7.343-2.572 7.554-1.843.212-3.678-2.826-4.101-6.787-.422-3.96.73-7.343 2.573-7.555 1.842-.21 3.678 2.828 4.1 6.788z" fill="#FFFAF5"/><path fill-rule="evenodd" clip-rule="evenodd" d="M209.325 49.526c.245 2.3-.424 4.265-1.494 4.387-1.07.125-2.137-1.642-2.382-3.941-.245-2.3.424-4.265 1.494-4.387 1.07-.124 2.137 1.64 2.382 3.941zM181.532 53.805c0 3.202-2.486 5.797-5.552 5.797-3.066 0-5.551-2.595-5.551-5.797 0-3.203 2.485-5.799 5.551-5.799 3.066 0 5.552 2.596 5.552 5.799zM223.872 81.845s-1.275 6.407-3.435 8.928c0 0-14.076 11.85-41.197-.178l-.778 1.044s20.456 11.024 37.117 3.246c0 0 6.336-3.482 8.939-6.349l-1.557.876s1.831-4.983 2.311-8.395c0 0-.607.84-1.4.828z" fill="#3F4756"/><path fill-rule="evenodd" clip-rule="evenodd" d="M131.448 47.466s9.411.679 14.603 13.895c0 0-6.815 2.034-12.331 0 0 0-3.569-4.405-2.272-13.895zM204.117 100.149s-10.911 4.024-23.179 3.866c0 0-5.968 0-8.017 5.912 0 0 6.073.236 12.904 3.232 0 0 2.182-3.469 7.239-1.419 0 0 5.911-3.337 12.998-4.112l-1.945-7.479z" fill="#BF8D00"/><path fill-rule="evenodd" clip-rule="evenodd" d="M139.128 93.835s17.17 19.166 17.853 39.267l-5.465 17.264s-14.801-.342-19.128 11.417c0 0-1.669 6.24 0 12.389 0 0-18.823 39.165-28.236 61.394 0 0 13.207-12.837 20.343-18.828 0 0-7.742 9.618-10.627 12.298 0 0 2.922-.513 6.565-3.114 0 0 5.921-4.494 6.604-3.784.683.709-6.831 9.223-11.955 15.135 0 0 5.807-2.602 12.98-9.933 0 0 2.884-3.665 4.403-3.192 0 0-26.833 41.03-41.179 38.428 0 0-2.457-.679-.944-12.755 0 0 2.124-20.505 24.134-67.146 0 0 16.395-35.748 22.011-46.641 0 0 2.473-35.981 2.641-42.199z" fill="#FDD835"/><path fill-rule="evenodd" clip-rule="evenodd" d="M158.575 102.49h-12.264s4.636 23.991 12.833 32.741l3.416-2.128-3.985-30.613z" fill="#D1AA02"/><path fill-rule="evenodd" clip-rule="evenodd" d="M184.302 108.304s-14.708-7.423-35.422-5.918c0 0 2.835 16.369 10.09 26.085 0 0 18.178-5.547 26.767-10.584 0 0 5.222 2.342 8.108-1.384 0 0 12.237 5.592 22.8 6.326 0 0 4.184-13.525 2.978-21.143 0 0-19.548-.262-26.945 6.088 0 0-5.038-3.45-8.376.53z" fill="#3F4756"/><path fill-rule="evenodd" clip-rule="evenodd" d="M150.501 192.46s-6.34 3.419-14.811-3.429c-8.471-6.849-11.034-25.763-.414-34.666 0 0 12.263-11.094 24.779-1.37 0 0 11.505 10.821 6.196 23.832-5.31 13.011-15.75 15.633-15.75 15.633z" fill="#FFFAF5"/><path fill-rule="evenodd" clip-rule="evenodd" d="M124.494 216.738s8.919-7.843 13.021-14.143c0 0-7.783-18.497-7.176-24.33 0 0 0-1.971 2.277-1.419 0 0 6.718 11.593 9.678 15.495 0 0 9.109-14.78 6.035-34.408 0 0-.342-2.01 1.138-2.129 0 0 1.708 0 2.391 2.72.683 2.719 2.846 10.76 2.505 20.929 0 0 3.643-13.716 2.619-26.25 0 0-.456-1.892 1.48-2.128 0 0 1.821-.71 2.846 2.601 1.025 3.311 1.822 10.642 1.253 20.101 0 0 2.618-12.061 1.594-18.682 0 0-.494-5.518 1.328-5.991 0 0 3.795-1.419 3.946 6.307.152 7.724 3.037 42.409-44.555 90.729l9.032-14.976s-2.884 2.601-6.527 6.7c-3.643 4.099-7.439 5.597-5.314 2.128l10.399-15.844s-15.181 14.425-17.534 14.741c-2.352.315.987-5.282 11.006-16.002 0 0-11.784 8.991-13.055 6.621-.81-1.509 3.292-3.038 11.613-12.77zM142.294 154.264s-3.485-11.233-12.275-11.352l-.933 2.602s8.653-.946 12.183 9.577l1.025-.827z" fill="#3F4756"/><path fill-rule="evenodd" clip-rule="evenodd" d="M212.716 133.771l33.984 44.16c17.495-44.158 21.664-67.999 23.227-95.545 0 0-.456-4.631.455-4.922.911-.29 3.985-2.182 6.034 19.693 0 0 4.555 5.084 12.069 4.375 7.515-.71 9.678-9.696 9.678-9.696s.379-9.55-5.997-14.372c0 0-1.29-1.618.455-2.63 1.746-1.01 6.225 1.119 10.4 10.499 0 0 .835-6.306-4.935-13.4 0 0-.758-1.34.532-2.129 1.29-.789 7.438 4.335 8.046 10.72 0 0 2.353 2.129 2.049 7.726-.303 5.596-12.676 21.814-27.401 28.851 0 0-11.462 89.468-34.84 103.499 0 0-7.834-3.517-19.015-24.974 0 0-15.023-56.062-14.741-61.855z" fill="#D1AA02"/><path fill-rule="evenodd" clip-rule="evenodd" d="M212.716 133.771l33.984 44.16c17.495-44.158 21.664-67.999 23.227-95.545 0 0-.456-4.631.455-4.922.911-.29 3.985-2.182 6.034 19.693 0 0 4.555 5.084 12.069 4.375 7.515-.71 9.678-9.696 9.678-9.696s.379-9.55-5.997-14.372c0 0-1.29-1.618.455-2.63 1.746-1.01 6.225 1.119 10.4 10.499 0 0 .835-6.306-4.935-13.4 0 0-.758-1.34.532-2.129 1.29-.789 7.438 4.335 8.046 10.72 0 0 2.353 2.129 2.049 7.726-.303 5.596-12.676 21.814-27.401 28.851 0 0-11.462 89.468-34.84 103.499 0 0-7.834-3.517-19.015-24.974 0 0-15.023-56.062-14.741-61.855z" fill="#D1AA02"/><path fill-rule="evenodd" clip-rule="evenodd" d="M261.699 134.185c5.339-19.529 7.272-34.977 8.227-51.799 0 0-.456-4.631.455-4.921.911-.29 3.985-2.183 6.035 19.692 0 0 4.554 5.084 12.068 4.375 7.515-.71 9.678-9.696 9.678-9.696s.38-9.55-5.996-14.371c0 0-1.291-1.619.455-2.63s6.224 1.117 10.399 10.498c0 0 .835-6.307-4.933-13.401 0 0-.76-1.34.531-2.129 1.29-.788 7.438 4.337 8.045 10.722 0 0 2.354 2.128 2.05 7.724-.304 5.597-12.676 21.815-27.402 28.851 0 0-2.892 22.575-8.735 46.824 0 0-1.113-2.976-.259-8.356s.949-12.691.949-12.691l-4.174 10.799.683-19.549s-6.636 21.914-9.049 20.968c-2.413-.946 4.57-26.013 4.57-26.013l-3.597 5.103zM180.429 89.67l-4.497 4.525s1.478-3.857 3.79-6.059l.707 1.535zM38.235 216.5l5.347-11.471 4.148 8.802L59.484 199v35H.708l.255-5.601 5.09-5.009 6.36 3.338 6.362-10.432 4.453 4.591 7.632-6.26 7.375 1.873zM283.026 33h71.909l.357-30.306-7.435 4.476L340.66 0l-11.308 11.734-4.037-3.296-6.335 8.707-8.404 2.566-5.449-4.652-6.459-4.205-9.104 11.395-6.227 5.074-.311 5.677z" fill="#3F4756"/><path fill-rule="evenodd" clip-rule="evenodd" d="M103.06 57.125c0 11.668-9.108 21.126-20.342 21.126-11.235 0-20.343-9.459-20.343-21.126C62.375 45.458 71.483 36 82.718 36c11.234 0 20.342 9.458 20.342 21.125z" fill="#FDD835"/><path fill-rule="evenodd" clip-rule="evenodd" d="M84.463 67.193h-3.49v-8.75h-8.427v-3.625h8.426v-8.75h3.49v8.75h8.426v3.625h-8.425v8.75z" fill="#3F4756"/><path fill-rule="evenodd" clip-rule="evenodd" d="M277.078 239.851c0 6.575-5.133 11.904-11.464 11.904s-11.463-5.329-11.463-11.904c0-6.576 5.132-11.906 11.463-11.906 6.331 0 11.464 5.33 11.464 11.906z" fill="#FDD835"/><path fill-rule="evenodd" clip-rule="evenodd" d="M258.59 241.102h14.049v-2.503H258.59v2.503z" fill="#3F4756"/><path fill-rule="evenodd" clip-rule="evenodd" d="M181.251 51.253c-.578 1.038-1.851 1.397-2.845.8-.994-.595-1.332-1.92-.755-2.958.577-1.038 1.851-1.396 2.845-.8.994.595 1.332 1.92.755 2.958zM206.286 48.955c-.44.162-.943-.13-1.122-.654-.18-.524.032-1.08.472-1.243.44-.163.942.13 1.122.654.179.524-.032 1.08-.472 1.243z" fill="#FFFAF5"/><path fill-rule="evenodd" clip-rule="evenodd" d="M68.156 153c0 11.598-9.058 21-20.234 21-11.175 0-20.234-9.402-20.234-21s9.06-21 20.234-21c11.176 0 20.234 9.402 20.234 21z" fill="#FDD835"/><path fill-rule="evenodd" clip-rule="evenodd" d="M39.25 147h17.344l-8.672 16-8.672-16z" fill="#3F4756"/><path fill-rule="evenodd" clip-rule="evenodd" d="M301.608 136.831c0-9.485 7.404-17.174 16.537-17.174s16.538 7.689 16.538 17.174-7.405 17.174-16.538 17.174-16.537-7.689-16.537-17.174z" fill="#FDD835"/><path fill-rule="evenodd" clip-rule="evenodd" d="M325.277 141.66h-14.264l7.132-12.811 7.132 12.811z" fill="#3F4756"/><path fill-rule="evenodd" clip-rule="evenodd" d="M216.982 139.315s15.299 41.207 27.292 53.031c0 0 13.222-17.678 17.921-59.998 0 0-8.212 28.644-15.496 45.582l-29.717-38.615zM130.859 239.851l-5.985 6.29-.911 26.109h16.196l-9.3-32.399z" fill="#FDD835"/></svg>
