<svg width="384px" height="288px" viewBox="0 0 384 288" fill="none" xmlns="http://www.w3.org/2000/svg">
  <path fill-rule="evenodd" clip-rule="evenodd"
    d="M104.495 274.397c0 2.818 31.965 5.103 71.396 5.103s71.395-2.285 71.395-5.103c0-2.819-31.964-5.104-71.395-5.104s-71.396 2.285-71.396 5.104z"
    fill="#CDD5E0" />
  <path fill-rule="evenodd" clip-rule="evenodd"
    d="M364.511 194H15.719C11.456 194 8 190.582 8 186.366v-23.662l12.845-37.952 15.232 25.403 17.154-65.317 15.107 29.87 9.26-18.019 17.623 38.429 18.494-60.622 19.142 52.029 6.464-17.526 4.241 3.346 6.421-17.03 10.951 21.46 16.131-49.519 16.701 34.751 7.81-11.816 9.115 13.824 11.948-30.195 10.283 22.87 8.961-10.122 18.221 33.09 13.407-30.43 6.009 8.938 16.181-37.58 16.377 54.122 14.039-25.404 8.365 6.01 13.142-25.66 6.272 4.842L376 24v158.638c0 6.275-5.143 11.362-11.489 11.362z"
    fill="#EBEEF2" />
  <path fill-rule="evenodd" clip-rule="evenodd"
    d="M158.175 43.522s29.595 165.803-42.179 196.819c0 0-38.301 10.339-34.922-36.831 0 0-9.172 55.651 42.968 52.742 0 0 16.898-.483 29.451-12.599 0 0 .12 17.083 5.309 31.985 0 0 12.975 1.514 24.2 0 0 0 1.751-.242.966-2.241-.784-1.999-3.018-9.572-4.466-12.055 0 0-1.509-.849-2.233-.97 0 0-7.544 2.12-11.647 2.241 0 0-3.601-10.721 7.584-32.69l13.518-7.513s-5.713 30.33 4.847 50.744c0 0 16.102 2.191 26.366.754 0 0 1.618-.249.872-2.31-.747-2.061-3.236-8.306-4.418-10.305 0 0-2.675-2.061-3.67-2.373 0 0-10.204 3.06-11.758 3.06 0 0-7.33-15.419 18.981-63.397 26.312-47.977 0-103.708 0-103.708l-17.055-35.136s-36.905-15.958-42.714-16.217z"
    fill="#FDD835" />
  <path fill-rule="evenodd" clip-rule="evenodd"
    d="M176.865 83.968a147.242 147.242 0 0013.459-2.844c4.542-1.182 8.98-.559 12.745 1.373 2.795-.394 5.618-.674 8.435-.89L200.889 59.74s-36.905-15.959-42.714-16.218c0 0 1.334 7.482 2.749 19.553 5.036 7 10.115 13.957 14.66 21.21a9.074 9.074 0 011.281-.317z"
    fill="#D1AA02" />
  <path fill-rule="evenodd" clip-rule="evenodd"
    d="M191.572 273.154s16.1 2.191 26.366.754c0 0 1.617-.249.871-2.31-.747-2.061-3.235-8.306-4.418-10.305 0 0-2.675-2.061-3.67-2.373 0 0-10.203 3.06-11.759 3.06 0 0-7.33-15.42 18.982-63.397 26.312-47.977 0-103.708 0-103.708l-15.441-31.808-.051-.032-25.039-1.146c14.453 17.201 7.352 50.83 7.352 50.83l-9.985 15.153s18.203 29.618 13.907 56.661c-2.043 12.856-7.116 26.754-15.481 45.39l13.518-7.513s-5.713 30.33 4.848 50.744z"
    fill="#D1AA02" />
  <path fill-rule="evenodd" clip-rule="evenodd"
    d="M180.528 61.355s-3.818 10.985-3.116 31.339l3.116-3.392s1.749 13.569 4.254 26.168c0 0 5.08 41.516 5.402 56.701.321 15.185 3.541 31.501 10.621 31.985 7.081.485 25.642-15.125 26.714-48.623 1.448-45.231-24.804-88.115-28.659-93.209 0 0-15.113-3.554-18.332-.969z"
    fill="#FFFAF5" />
  <path fill-rule="evenodd" clip-rule="evenodd"
    d="M198.114 75.481c3.336 1.356 6.791 2.322 10.245 3.291-4.42-8.816-8.211-14.746-9.499-16.447 0 0-15.113-3.555-18.332-.97 0 0-2.655 7.682-3.124 22.059 6.091-2.487 12.277-4.728 18.251-7.494.567-.594 1.415-.863 2.459-.439zM194.107 196.24c-.07-.755-.204-1.753-.25-2.12-.119-.74-.235-1.48-.367-2.218-.779-4.311-1.798-8.557-2.952-12.765.558 6.873 1.744 13.441 3.648 18.126-.028-.341-.047-.683-.079-1.023z"
    fill="#CDD5E0" />
  <path fill-rule="evenodd" clip-rule="evenodd"
    d="M209.104 25.56l1.599-1.404s1.6-1.605 2.399.602c.8 2.206 1.331 5.819-.533 7.726 0 0-2.865-5.52-3.465-6.923z"
    fill="#D8B212" />
  <path fill-rule="evenodd" clip-rule="evenodd"
    d="M158.322 22.952s4.398-4.817 9.797-7.225c5.397-2.409 8.696-2.509 14.494-2.107 5.798.4 10.596-3.413 11.196-5.62 0 0 2 1.405.8 5.018 0 0 3.199-1.405 3.998-2.81 0 0 1 2.408-.599 4.816 0 0 8.797 3.412 11.396 10.436 2.599 7.023 6.197 10.035 6.397 12.844 0 0 .4 2.81-1.599 5.017-1.999 2.208-3.998.602-3.998.602s-2.2-.401-3-2.608c0 0-7.397-2.007-11.196.2 0 0-15.195 5.62-8.996-3.613 0 0-4.798 2.61-6.797 5.82-2.001 3.211-8.398 4.014-12.397 1.807-3.998-2.208-4.199-5.82-3.798-9.433.399-3.613-4.998-12.643-11.396-13.044 0 0 .999-1.003 5.698-.1z"
    fill="#FDD835" />
  <path fill-rule="evenodd" clip-rule="evenodd"
    d="M215.801 38.304s.401 2.81-1.598 5.017c-2.001 2.208-3.999.602-3.999.602s-2.2-.401-3-2.609c0 0-7.397-2.007-11.196.2 0 0-15.194 5.62-8.996-3.612 0 0-4.798 2.61-6.798 5.82-1.999 3.211-8.396 4.015-12.396 1.807-3.998-2.208-4.198-5.82-3.798-9.433.4-3.612-4.998-12.643-11.396-13.044 0 0-8.397 13.245 4.998 20.47 0 0 5.198 20.27 31.99 21.073 26.79.801 27.19-20.27 26.189-26.291z"
    fill="#D1AA02" />
  <path fill-rule="evenodd" clip-rule="evenodd"
    d="M167.619 24.858s-1.799 10.636 8.197 15.052c0 0 6.597 1.003 13.394-5.82 0 0 1.434-11.745-8.196-12.643-8.597-.804-13.395 3.411-13.395 3.411z"
    fill="#BF8D00" />
  <path fill-rule="evenodd" clip-rule="evenodd"
    d="M184.213 29.323c0 3.241-2.617 5.87-5.848 5.87-3.23 0-5.849-2.629-5.849-5.87 0-3.242 2.619-5.87 5.849-5.87 3.231 0 5.848 2.628 5.848 5.87z"
    fill="#fff" />
  <path fill-rule="evenodd" clip-rule="evenodd"
    d="M181.658 29.323a3.555 3.555 0 01-3.549 3.562 3.556 3.556 0 01-3.549-3.562 3.556 3.556 0 013.549-3.561 3.555 3.555 0 013.549 3.561z"
    fill="#3F4756" />
  <path fill-rule="evenodd" clip-rule="evenodd"
    d="M176.86 27.266a1.1 1.1 0 11-2.199 0 1.1 1.1 0 112.199 0zM204.506 26.063a1.1 1.1 0 11-2.199 0 1.1 1.1 0 112.199 0z"
    fill="#fff" />
  <path fill-rule="evenodd" clip-rule="evenodd"
    d="M200.107 20.516c-6.608.688-6.151 11.21 4.786 16.699 0 0 6.866-2.87 4.389-12.21-2.256-2.635-2.567-5.174-9.175-4.489z"
    fill="#BF8D00" />
  <path fill-rule="evenodd" clip-rule="evenodd"
    d="M206.836 27.501c0 2.585-2.088 4.682-4.663 4.682-2.577 0-4.665-2.097-4.665-4.682 0-2.585 2.088-4.682 4.665-4.682 2.575 0 4.663 2.097 4.663 4.682z"
    fill="#fff" />
  <path fill-rule="evenodd" clip-rule="evenodd"
    d="M204.505 27.387a3.105 3.105 0 01-3.098 3.111 3.105 3.105 0 01-3.099-3.11 3.105 3.105 0 013.099-3.112 3.105 3.105 0 013.098 3.111z"
    fill="#3F4756" />
  <path fill-rule="evenodd" clip-rule="evenodd"
    d="M152.624 26.464s5.798.4 8.997 8.228c0 0-4.198 1.204-7.598 0 0 0-2.199-2.61-1.399-8.228z" fill="#BF8D00" />
  <path fill-rule="evenodd" clip-rule="evenodd"
    d="M181.967 13.576s6.444 1.448 8.643 2.251c2.199.803 5.999 1.204 7.397-.803 0 0 1.6-2.208.6-4.816 0 0-1.694 1.643-3.998 2.81 0 0 1.399-3.011-.8-5.018 0 0-2.893 5.934-11.842 5.576z"
    fill="#FDD835" />
  <path fill-rule="evenodd" clip-rule="evenodd"
    d="M195.609 41.114s.2-1.807 1.398-2.208c1.201-.402 6.399-.803 8.998 0 0 0 1.599.602 1.8 2.61.199 2.006-1.2 5.82-4.999 5.82-2.599 0-7.598-1.607-7.197-6.222z"
    fill="#3F4756" />
  <path fill-rule="evenodd" clip-rule="evenodd"
    d="M210.204 43.923s-1.8 11.038-11.796 11.038c0 0-10.656.83-10.626 9.546 0 0 14.024 1.838 22.422-6.563 0 0 7.196-6.394 5.597-19.44 0 0 .38 4.01-2.409 5.517 0 0-1.19.905-3.188-.098z"
    fill="#BF8D00" />
  <path fill-rule="evenodd" clip-rule="evenodd"
    d="M182.268 45.634l.976.867-1.931 1.938s6.399 4.013 13.596 3.613c0 0 4.198 0 6.198-2.007 0 0 .5-1.82.799-2.767 0 0 1.001-.044 1.947-.048l-.647 3.316s.626 1.287 3.212 1.045c0 0-.713.661-1.313 1.263 0 0-1.899-.1-3.099-1.305 0 0-8.397 6.021-21.592-2.407l-2.304 2.166s1.16-3.667 4.158-5.674zM194.836 68.279s-1.886 1.373-3.404.095c0 0-5.372 5.104-13.744 8.05 0 0-8.137-9.262-8.522-13.66 0 0 12.945-1.13 21.863 1.012 0 0 1.905-1.174 3.368-.495 0 0 14.035-4.363 19.302-3.815 0 0-1.232 9.382-4.598 14.215 0 0-6.817-1.721-14.265-5.402z"
    fill="#3F4756" />
  <path fill-rule="evenodd" clip-rule="evenodd" d="M200.336 25.395a1.015 1.015 0 11-2.028 0 1.015 1.015 0 112.028 0z"
    fill="#fff" />
  <path fill-rule="evenodd" clip-rule="evenodd"
    d="M193.809 8s-1.275 5.858-4.099 7.326l5.06-2.36s1.218-2.9-.961-4.966zM198.607 10.208s1.076 2.307-.6 4.816c0 0-1.448 1.18-2.549 1.205 0 0 3.099-3.312 3.149-6.021z"
    fill="#D8B212" />
  <path fill-rule="evenodd" clip-rule="evenodd"
    d="M178.662 99.479s16.028 32.812 25.844 65.122l9.254 23.805s-2.093-1.453-2.977-2.585l.804 6.22s-2.655.404-3.942-1.696c0 0-3.139 0-3.461-2.1 0 0-3.541-.727-3.701-3.877-.16-3.15-3.38-18.658-3.38-18.658s-16.735-28.269-21.323-35.377c-4.586-7.108 2.882-30.854 2.882-30.854z"
    fill="#FDD835" />
  <path fill-rule="evenodd" clip-rule="evenodd"
    d="M186.862 148.513a4465.947 4465.947 0 0110.242 17.196s3.219 15.509 3.38 18.658c.16 3.151 3.701 3.878 3.701 3.878.322 2.1 3.46 2.1 3.46 2.1 1.287 2.1 3.943 1.696 3.943 1.696l-.805-6.22c.885 1.131 2.977 2.585 2.977 2.585l-9.253-23.806c-3.268-10.755-3.605-11.505-7.081-21.082l1.448 9.692-4.466-3.937.182 3.816-4.888-6.905 1.327 7.026s-2.808-7.541-5.809-7.434l1.642 2.737zM157.739 180.307s2.004 4.148 9.664 9.934c0 0 1.538 1.375.512 2.89-1.026 1.514-11.617-2.182-12.87-3.06l2.694-9.764zM161.273 161.864s6.883 6.734 11.712 8.672c0 0 1.285.423 1.306 2.12.022 1.696-9.97 1.121-14.781-.44l1.763-10.352zM163.359 142.425s5.16 3.759 10.169 5.879c0 0 3.735 1.878 3.798 3.635.063 1.756-8.562 2.329-14.932 1.134l.965-10.648zM164.165 123.951s3.112 3.67 5.696 5.897c0 0 3.908 2.887 3.908 5.25 0 2.102-8.641.479-9.953-.325l.349-10.822z"
    fill="#3F4756" />
  <path fill-rule="evenodd" clip-rule="evenodd"
    d="M296.64 151.671s-18.398 37.774-33.73 51.485l31.32 9.234s18.03-28.116 30.853-53.86l-28.443-6.859z"
    fill="#FDD835" />
  <path fill-rule="evenodd" clip-rule="evenodd"
    d="M158.642 204.167s-4.989 23.089-5.149 39.486c0 0-14.184 16.916-45.313 11.406 0 0 41.933-1.288 50.462-50.892z"
    fill="#D1AA02" />
  <path fill-rule="evenodd" clip-rule="evenodd"
    d="M202.456 232.381c-7.171 21.848-3.628 29.599-3.628 29.599 1.556 0 11.758-3.06 11.758-3.06.996.312 3.671 2.373 3.671 2.373 1.183 1.999 3.671 8.244 4.417 10.305.748 2.061-.87 2.31-.87 2.31-10.266 1.437-26.366-.754-26.366-.754-5.665-10.949-6.647-24.751-6.341-35.197 0 0 1.466 7.392 1.708 10.179.241 2.786 2.292-16.236 4.465-16.961 2.172-.728.242 14.538.242 14.538l3.016-6.664.725 2.665s7.67-17.662 10.533-17.917c0 0-2.723 6.736-3.33 8.584zM173.168 229.922c-11.186 21.97-7.584 32.691-7.584 32.691 4.103-.12 11.647-2.24 11.647-2.24.723.12 2.232.969 2.232.969 1.449 2.484 3.681 10.056 4.467 12.054.785 2-.966 2.242-.966 2.242-11.225 1.515-24.199 0-24.199 0-5.19-14.902-5.311-31.985-5.311-31.985l2.071 7.147s1.449-17.09 3.299-18.419c0 0 1.45-1.41 1.771 4.406l.161 8.158 2.977-7.673.724 4.605s5.874-15.67 9.736-15.348l-1.025 3.393zM124.043 256.253c-52.141 2.908-42.969-52.743-42.969-52.743-3.379 47.17 34.922 36.832 34.922 36.832s-1.693 2.2-4.205 4.037c0 0 1.369 1.131 3.461 2.344l-1.69 3.876 10.481 5.654z"
    fill="#3F4756" />
  <path fill-rule="evenodd" clip-rule="evenodd"
    d="M208.229 76.098s16.147-5.395 20.465-14.652c4.318-9.255 2.226-27.895-8.396-33.518 0 0-2.453-.581-3.66-1.204-1.207-.623-7.363-2.701-11.95-2.207 0 0-.804.12-1.206-.682-.402-.803 5.391-2.661 7.482-2.741 0 0-6.598-1.374-11.023 0 0 0-1.126-.037-.966-1.069.162-1.03 5.311-2.404 7.081-2.242 0 0-3.942-.081-8.207 1.291 0 0-2.494.888-2.816-.242-.322-1.13 5.471-4.039 8.529-4.039 0 0-3.058-.893-7.001 1.25 0 0-1.69.366-2.011-.765-.322-1.131 7.323-4.443 9.978-4.443 2.655 0 14.483 5.538 20.438 9.19 5.954 3.654 18.346 22.795 15.69 43.392-2.656 20.596-23.657 31.016-23.657 31.016l-8.77-18.335z"
    fill="#D1AA02" />
  <path fill-rule="evenodd" clip-rule="evenodd"
    d="M234.005 31.273c-3.113-5.69-6.611-9.758-9.039-11.247-5.955-3.653-17.783-9.19-20.438-9.19-2.655 0-10.3 3.31-9.978 4.442.321 1.13 2.011.765 2.011.765 3.943-2.143 7.001-1.25 7.001-1.25-3.058 0-8.85 2.909-8.53 4.04.323 1.13 2.817.241 2.817.241 3.039-.978 5.906-1.217 7.308-1.274-2.191.192-6.042 1.335-6.182 2.226-.16 1.03.966 1.068.966 1.068 4.425-1.374 11.023 0 11.023 0-2.091.08-7.885 1.938-7.482 2.74.402.803 1.207.683 1.207.683 4.586-.495 10.742 1.584 11.948 2.207 1.208.623 3.661 1.204 3.661 1.204 4.293 2.272 7.192 6.673 8.839 11.72 0 0 1.052 2.878 1.48 7.126 0 0 .544-6.045-.282-9.559 0 0 1.771.846 3.011 3.38 0 0-1.181-7.012-3.188-10.43l3.847 1.108zM282.854 177.625s4.671-8.012 17.98-3.772c13.31 4.24 9.108 11.038 9.108 11.038s-5.955 6.094-18.739 2.812c-12.785-3.28-8.349-10.078-8.349-10.078z"
    fill="#3F4756" />
  <path fill-rule="evenodd" clip-rule="evenodd"
    d="M277.132 115.836l12.231 11.955s21.303-9.714 32.99-29.402l-14.977-11.206s-11.978 18.476-30.244 28.653z"
    fill="#FDD835" />
  <path fill-rule="evenodd" clip-rule="evenodd"
    d="M295.449 103.786s-4.466 4.574 2.263 9.89c6.729 5.318 10.119 0 10.119 0s2.213-4.418-3.462-8.687c-6.034-4.539-8.92-1.203-8.92-1.203z"
    fill="#3F4756" />
  <path fill-rule="evenodd" clip-rule="evenodd"
    d="M93.368 45.036s14.178 13.363 38.874 18.1l6.251-16.87s-21.19-3.486-36.74-18.135l-8.385 16.905zM88.53 177.882s11.777 18.193 39.915 26.285l14.171-15.094s-25.035-9.088-38.498-26.513c0 0-12.517 11.085-15.587 15.322z"
    fill="#FDD835" />
  <path fill-rule="evenodd" clip-rule="evenodd"
    d="M118.453 40.789s-5.134-1.182-7.741 3.688c-2.609 4.87-.571 9.646 2.118 11.078 2.689 1.433 6.682-3.461 7.659-6.792.978-3.33.735-7.079-2.036-7.974zM71.68 144.719s-9.832 12.146-26.528 19.223l11.687 11.172s18.737-10.921 26.343-23.895l-11.502-6.5z"
    fill="#3F4756" />
  <path fill-rule="evenodd" clip-rule="evenodd"
    d="M147.856 148.49s-10.096-15.723-15.026-36.338l-13.863 8.296s6.357 23.86 20.605 39.663l8.284-11.621z"
    fill="#FDD835" />
  <path fill-rule="evenodd" clip-rule="evenodd"
    d="M119.633 177.963s-6.141-2.371-10.865 2.608c-4.723 4.979-1.889 9.601-.59 10.549 1.299.949 7.321.593 10.746-3.199 3.425-3.795 4.606-8.18.709-9.958zM195.843 119.401c.364-.056.625-.297.784-.728.158-.432.204-.941.135-1.53-.072-.604-.233-1.094-.49-1.463-.252-.372-.561-.531-.913-.478l-1.865.282c.179 1.399.337 2.798.476 4.197l1.873-.28zm-1.106-7.682c.342-.053.577-.271.706-.656.129-.384.147-.862.049-1.431-.093-.55-.264-.99-.504-1.31-.242-.321-.537-.453-.888-.401l-1.726.262c.226 1.265.435 2.531.629 3.797l1.734-.261zm-3.005 11.744a.96.96 0 01-.14-.452 147.215 147.215 0 00-2.36-17.348 1.108 1.108 0 01-.001-.51c.039-.141.105-.22.207-.236l4.253-.648c1.164-.176 2.129.154 2.883.995.755.84 1.297 2.112 1.593 3.825.147.857.151 1.614.013 2.275-.139.659-.332 1.154-.578 1.482.429.261.82.747 1.184 1.445.36.702.599 1.515.708 2.442.217 1.801.041 3.246-.491 4.334-.533 1.09-1.388 1.723-2.548 1.894l-4.463.665c-.094.016-.181-.039-.26-.163zM204.477 111.122c.396-.06.671-.296.815-.712.146-.416.161-.96.042-1.639-.118-.677-.323-1.205-.605-1.583-.283-.381-.625-.538-1.019-.479-.511.077-1.021.156-1.532.234.277 1.469.53 2.941.76 4.411l1.539-.232zm-2.827 10.861a.947.947 0 01-.144-.45 147.955 147.955 0 00-2.54-17.35 1.156 1.156 0 01-.008-.509c.036-.142.107-.222.205-.237l3.78-.576c1.209-.183 2.273.205 3.179 1.171.905.963 1.553 2.414 1.899 4.36.221 1.249.243 2.332.078 3.25-.163.919-.483 1.66-.944 2.22.929 2.08 1.812 4.16 2.651 6.24.037.104.061.197.07.288a.896.896 0 01-.05.399c-.046.127-.109.193-.193.206l-1.976.295c-.271.04-.482-.172-.638-.636a184.4 184.4 0 00-2.18-5.569l-1.338.201c.252 1.951.466 3.904.639 5.853.016.197-.005.362-.064.497-.059.134-.14.208-.244.225l-1.921.287c-.092.013-.18-.039-.261-.165zM215.96 115.387c.215-.608.255-1.486.102-2.65a71.868 71.868 0 00-.315-2.224c-.074-.447-.2-1.165-.397-2.163-.224-1.154-.541-1.992-.937-2.508-.395-.519-.833-.74-1.31-.668-.486.075-.816.412-.992 1.018-.178.604-.165 1.486.018 2.648.078.497.198 1.222.348 2.167.152.962.268 1.704.351 2.218.184 1.159.448 1.992.806 2.512.36.518.783.741 1.276.666.481-.073.834-.41 1.05-1.016zm-3.934 3.65c-.893-1.114-1.491-2.862-1.871-5.244-.079-.497-.191-1.265-.354-2.299-.161-1.033-.288-1.81-.368-2.329-.37-2.359-.335-4.231.162-5.621.494-1.39 1.371-2.182 2.649-2.376 1.27-.191 2.437.286 3.48 1.442 1.043 1.159 1.828 2.907 2.292 5.255.206 1.031.344 1.805.43 2.322.088.534.205 1.304.333 2.304.31 2.396.121 4.266-.502 5.609-.625 1.343-1.611 2.115-2.937 2.312-1.326.197-2.425-.26-3.314-1.375zM270.133 35.227l6.999 1.72s-3.499 8.607-6.999 14.234l-5.214-1.706s4-9.875 5.214-14.248z"
    fill="#3F4756" />
  <path fill-rule="evenodd" clip-rule="evenodd"
    d="M244.553 115.975l6.999 1.721s-3.499 8.606-6.999 14.233l-5.214-1.706s4-9.875 5.214-14.248z" fill="#FDD835" />
  <path fill-rule="evenodd" clip-rule="evenodd"
    d="M213.76 188.406l2.092 2.019-2.092 2.181-2.307-1.608-.67-5.177s1.824 1.472 2.977 2.585z" fill="#3F4756" />
  <path fill-rule="evenodd" clip-rule="evenodd"
    d="M199.447 177.646l-7.59-6.047s-1.048 3.645-.404 5.561l8.94 6.256-.946-5.77zM223.209 186.899c-6.587 0-11.925 5.36-11.925 11.971 0 6.612 5.338 11.97 11.925 11.97 6.586 0 11.925-5.358 11.925-11.97 0-6.611-5.339-11.971-11.925-11.971zm0 3.496c4.656 0 8.443 3.802 8.443 8.475 0 4.674-3.787 8.476-8.443 8.476-4.657 0-8.443-3.802-8.443-8.476 0-4.673 3.786-8.475 8.443-8.475z"
    fill="#404957" /></svg>
