<svg width="24" height="18" viewBox="0 0 24 18" fill="none" xmlns="http://www.w3.org/2000/svg">
<path fill-rule="evenodd" clip-rule="evenodd" d="M2 2.83423C1.30964 2.83423 0.75 2.27458 0.75 1.58423C0.75 0.893873 1.30964 0.334229 2 0.334229H22C22.6904 0.334229 23.25 0.893873 23.25 1.58423C23.25 2.27458 22.6904 2.83423 22 2.83423H2ZM2 10.3335C1.30964 10.3335 0.75 9.77381 0.75 9.08345C0.75 8.3931 1.30964 7.83345 2 7.83345H22C22.6904 7.83345 23.25 8.3931 23.25 9.08345C23.25 9.77381 22.6904 10.3335 22 10.3335H2ZM0.75 16.567C0.75 17.2574 1.30964 17.817 2 17.817H22C22.6904 17.817 23.25 17.2574 23.25 16.567C23.25 15.8767 22.6904 15.317 22 15.317H2C1.30964 15.317 0.75 15.8767 0.75 16.567Z" fill="#3F4756"/>
</svg>
