<svg width="24" height="24" fill="none" xmlns="http://www.w3.org/2000/svg"><rect width="24" height="24" rx="4" fill="url(#prefix__paint0_linear)"/><path fill-rule="evenodd" clip-rule="evenodd" d="M8.4 11.7c0 1.82 1.48 3.3 3.3 3.3 1.82 0 3.3-1.48 3.3-3.3 0-1.82-1.48-3.3-3.3-3.3-1.82 0-3.3 1.48-3.3 3.3zm.888 0A2.414 2.414 0 0111.7 9.288a2.414 2.414 0 012.412 2.412 2.415 2.415 0 01-2.412 2.412A2.415 2.415 0 019.288 11.7z" fill="#fff"/><path d="M15.877 8.355a.277.277 0 100-.555.277.277 0 000 .555z" fill="#fff"/><path fill-rule="evenodd" clip-rule="evenodd" d="M9.095 18.6h5.81a3.699 3.699 0 003.695-3.694v-5.81A3.699 3.699 0 0014.905 5.4h-5.81A3.699 3.699 0 005.4 9.095v5.81A3.699 3.699 0 009.095 18.6zM6.308 9.095A2.79 2.79 0 019.095 6.31h5.81a2.79 2.79 0 012.786 2.786v5.81a2.79 2.79 0 01-2.786 2.787h-5.81a2.79 2.79 0 01-2.787-2.786v-5.81z" fill="#fff"/><defs><linearGradient id="prefix__paint0_linear" x1="25.819" y1="24.949" x2="25.819" y2="-2.688" gradientUnits="userSpaceOnUse"><stop offset=".097" stop-color="#FFD879"/><stop offset=".154" stop-color="#FCCB76"/><stop offset=".258" stop-color="#F5AA6C"/><stop offset=".398" stop-color="#E9755E"/><stop offset=".449" stop-color="#E45F58"/><stop offset=".679" stop-color="#D22A9C"/><stop offset="1" stop-color="#6968DF"/></linearGradient></defs></svg>
