<svg xmlns="http://www.w3.org/2000/svg" viewBox="0 0 330 330">
  <path
    d="M165 7.5c-8.284 0-15 6.716-15 15v60c0 8.284 6.716 15 15 15 8.284 0 15-6.716 15-15v-60c0-8.284-6.716-15-15-15zm0 255c-8.284 0-15 6.716-15 15v30c0 8.284 6.716 15 15 15 8.284 0 15-6.716 15-15v-30c0-8.284-6.716-15-15-15zm150-105h-60c-8.284 0-15 6.716-15 15s6.716 15 15 15h60c8.284 0 15-6.716 15-15s-6.716-15-15-15zm-225 15c0-8.284-6.716-15-15-15H15c-8.284 0-15 6.716-15 15s6.716 15 15 15h60c8.284 0 15-6.716 15-15zM281.673 55.827c-5.857-5.858-15.355-5.858-21.213 0l-42.427 42.427c-5.858 5.858-5.858 15.355 0 21.213a14.954 14.954 0 0010.606 4.394 14.95 14.95 0 0010.607-4.394l42.427-42.427c5.858-5.858 5.858-15.355 0-21.213zM90.753 225.533L48.328 267.96c-5.857 5.858-5.857 15.355 0 21.213a14.953 14.953 0 0010.607 4.393c3.839 0 7.678-1.464 10.607-4.393l42.426-42.427c5.857-5.858 5.857-15.355 0-21.213-5.859-5.858-15.356-5.858-21.215 0zM69.541 55.827c-5.858-5.858-15.355-5.857-21.213 0-5.858 5.858-5.858 15.355 0 21.213l42.426 42.427a14.956 14.956 0 0010.607 4.394c3.838 0 7.678-1.465 10.606-4.393 5.858-5.858 5.858-15.355 0-21.213L69.541 55.827z" />
  </svg>
