<svg width="198" height="68" fill="none" xmlns="http://www.w3.org/2000/svg">
  <path fill-rule="evenodd" clip-rule="evenodd"
    d="M93.249 36.917c-.372 0-.684-.121-.938-.364-.253-.243-.38-.555-.38-.936V8.982h-8.918c-.371 0-.684-.12-.937-.364-.253-.242-.38-.555-.38-.936V1.856c0-.382.127-.702.38-.963.253-.26.566-.39.937-.39h27.515c.372 0 .684.13.937.39.254.26.381.581.381.963v5.826c0 .381-.127.694-.381.936a1.3 1.3 0 01-.937.364h-8.918v26.635c0 .381-.127.693-.38.936a1.305 1.305 0 01-.938.364h-7.043zm23.765 0a1.2 1.2 0 01-.887-.39 1.265 1.265 0 01-.38-.91V11.218c0-.381.118-.702.355-.962.236-.26.54-.39.912-.39h6.182c.371 0 .684.13.937.39s.38.58.38.962v1.977a9.702 9.702 0 013.319-2.471c1.267-.572 2.677-.858 4.231-.858h2.281c.371 0 .675.121.912.364.236.243.354.555.354.936v5.67c0 .347-.118.65-.354.91-.237.26-.541.39-.912.39h-5.118c-1.352 0-2.39.382-3.117 1.145-.726.763-1.089 1.838-1.089 3.226v13.108c0 .382-.127.694-.38.937a1.305 1.305 0 01-.938.364h-6.688zm31.771.52c-2.972 0-5.371-1.023-7.195-3.07-1.824-2.045-2.736-4.94-2.736-8.686V11.167c0-.381.126-.693.38-.936.253-.243.549-.364.887-.364h6.739a1.3 1.3 0 01.937.364c.254.243.38.555.38.936V25.37c0 3.225 1.402 4.837 4.206 4.837 1.351 0 2.407-.424 3.167-1.274.76-.85 1.14-2.038 1.14-3.563V11.167c0-.381.127-.693.38-.936.254-.243.566-.364.938-.364h6.688c.372 0 .676.121.912.364.237.243.355.555.355.936v24.45c0 .346-.118.65-.355.91-.236.26-.54.39-.912.39h-6.182c-.371 0-.684-.122-.937-.364-.253-.243-.38-.555-.38-.937V33.64c-1.757 2.531-4.56 3.797-8.412 3.797zm35.318 0c-4.121 0-7.364-1.136-9.729-3.407-2.364-2.272-3.58-5.575-3.648-9.91v-1.613c.135-4.126 1.385-7.352 3.75-9.675 2.364-2.324 5.557-3.485 9.577-3.485 2.905 0 5.362.598 7.372 1.794 2.01 1.197 3.514 2.844 4.51 4.942.997 2.098 1.495 4.482 1.495 7.153v1.3c0 .382-.127.702-.38.963-.253.26-.566.39-.937.39H180.05v.312c.033 1.56.388 2.818 1.064 3.771.675.954 1.638 1.43 2.888 1.43.811 0 1.461-.164 1.951-.493a6.81 6.81 0 001.393-1.275c.304-.347.549-.563.735-.65.186-.087.481-.13.887-.13h6.638c.304 0 .566.095.785.286.22.19.33.425.33.702 0 .902-.499 1.96-1.495 3.174-.997 1.213-2.449 2.254-4.358 3.12-1.909.868-4.164 1.301-6.765 1.301zm4.003-16.854v-.104c0-1.665-.354-2.957-1.064-3.876-.709-.919-1.706-1.378-2.989-1.378-1.284 0-2.272.46-2.965 1.378-.692.92-1.038 2.211-1.038 3.876v.104h8.056z"
    fill="#3F4756" />
  <path fill-rule="evenodd" clip-rule="evenodd"
    d="M93.249 36.917c-.372 0-.684-.121-.938-.364-.253-.243-.38-.555-.38-.936V8.982h-8.918c-.371 0-.684-.12-.937-.364-.253-.242-.38-.555-.38-.936V1.856c0-.382.127-.702.38-.963.253-.26.566-.39.937-.39h27.515c.372 0 .684.13.937.39.254.26.381.581.381.963v5.826c0 .381-.127.694-.381.936a1.3 1.3 0 01-.937.364h-8.918v26.635c0 .381-.127.693-.38.936a1.305 1.305 0 01-.938.364h-7.043zm23.765 0a1.2 1.2 0 01-.887-.39 1.265 1.265 0 01-.38-.91V11.218c0-.381.118-.702.355-.962.236-.26.54-.39.912-.39h6.182c.371 0 .684.13.937.39s.38.58.38.962v1.977a9.702 9.702 0 013.319-2.471c1.267-.572 2.677-.858 4.231-.858h2.281c.371 0 .675.121.912.364.236.243.354.555.354.936v5.67c0 .347-.118.65-.354.91-.237.26-.541.39-.912.39h-5.118c-1.352 0-2.39.382-3.117 1.145-.726.763-1.089 1.838-1.089 3.226v13.108c0 .382-.127.694-.38.937a1.305 1.305 0 01-.938.364h-6.688zm31.771.52c-2.972 0-5.371-1.023-7.195-3.07-1.824-2.045-2.736-4.94-2.736-8.686V11.167c0-.381.126-.693.38-.936.253-.243.549-.364.887-.364h6.739a1.3 1.3 0 01.937.364c.254.243.38.555.38.936V25.37c0 3.225 1.402 4.837 4.206 4.837 1.351 0 2.407-.424 3.167-1.274.76-.85 1.14-2.038 1.14-3.563V11.167c0-.381.127-.693.38-.936.254-.243.566-.364.938-.364h6.688c.372 0 .676.121.912.364.237.243.355.555.355.936v24.45c0 .346-.118.65-.355.91-.236.26-.54.39-.912.39h-6.182c-.371 0-.684-.122-.937-.364-.253-.243-.38-.555-.38-.937V33.64c-1.757 2.531-4.56 3.797-8.412 3.797zm35.318 0c-4.121 0-7.364-1.136-9.729-3.407-2.364-2.272-3.58-5.575-3.648-9.91v-1.613c.135-4.126 1.385-7.352 3.75-9.675 2.364-2.324 5.557-3.485 9.577-3.485 2.905 0 5.362.598 7.372 1.794 2.01 1.197 3.514 2.844 4.51 4.942.997 2.098 1.495 4.482 1.495 7.153v1.3c0 .382-.127.702-.38.963-.253.26-.566.39-.937.39H180.05v.312c.033 1.56.388 2.818 1.064 3.771.675.954 1.638 1.43 2.888 1.43.811 0 1.461-.164 1.951-.493a6.81 6.81 0 001.393-1.275c.304-.347.549-.563.735-.65.186-.087.481-.13.887-.13h6.638c.304 0 .566.095.785.286.22.19.33.425.33.702 0 .902-.499 1.96-1.495 3.174-.997 1.213-2.449 2.254-4.358 3.12-1.909.868-4.164 1.301-6.765 1.301zm4.003-16.854v-.104c0-1.665-.354-2.957-1.064-3.876-.709-.919-1.706-1.378-2.989-1.378-1.284 0-2.272.46-2.965 1.378-.692.92-1.038 2.211-1.038 3.876v.104h8.056z"
    fill="#3F4756" />
  <path fill-rule="evenodd" clip-rule="evenodd"
    d="M57.37 17.44l1.553-1.396s1.553-1.595 2.33.599c.776 2.192 1.291 5.78-.52 7.672 0 0-2.78-5.48-3.363-6.875z"
    fill="#D8B212" />
  <path fill-rule="evenodd" clip-rule="evenodd"
    d="M8.057 14.848s4.27-4.783 9.513-7.175c5.242-2.391 8.445-2.49 14.075-2.093 5.63.399 10.29-3.388 10.872-5.58 0 0 1.941 1.395.777 4.982 0 0 3.106-1.394 3.883-2.79 0 0 .97 2.392-.583 4.783 0 0 8.543 3.39 11.067 10.365 2.523 6.976 6.018 9.965 6.213 12.755 0 0 .388 2.79-1.554 4.983-1.941 2.192-3.883.598-3.883.598s-2.135-.399-2.912-2.59c0 0-7.183-1.993-10.872.198 0 0-14.755 5.58-8.737-3.587 0 0-4.659 2.59-6.601 5.78-1.941 3.19-8.154 3.986-12.037 1.793-3.883-2.192-4.076-5.779-3.688-9.367.388-3.587-4.854-12.556-11.067-12.955 0 0 .971-.996 5.534-.1z"
    fill="#FDD835" />
  <mask id="prefix__a" maskUnits="userSpaceOnUse" x="0" y="14" width="65" height="43">
    <path fill-rule="evenodd" clip-rule="evenodd" d="M0 14.947h64.136v41.28H0v-41.28z" fill="#fff" />
  </mask>
  <g mask="url(#prefix__a)">
    <path fill-rule="evenodd" clip-rule="evenodd"
      d="M63.873 30.095s.388 2.791-1.553 4.984c-1.941 2.191-3.883.597-3.883.597s-2.136-.399-2.912-2.59c0 0-7.183-1.993-10.873.198 0 0-14.754 5.58-8.736-3.587 0 0-4.66 2.59-6.6 5.78-1.942 3.19-8.155 3.986-12.038 1.793-3.882-2.191-4.077-5.779-3.689-9.366.388-3.588-4.853-12.557-11.066-12.957 0 0-8.154 13.155 4.854 20.33 0 0 5.047 20.13 31.063 20.928 26.016.797 26.404-20.13 25.433-26.11z"
      fill="#D1AA02" />
  </g>
  <path fill-rule="evenodd" clip-rule="evenodd"
    d="M17.084 16.742s-1.747 10.563 7.96 14.948c0 0 6.407.997 13.008-5.78 0 0 1.391-11.664-7.96-12.557-8.348-.797-13.008 3.389-13.008 3.389z"
    fill="#BF8D00" />
  <path fill-rule="evenodd" clip-rule="evenodd"
    d="M33.199 21.177c0 3.219-2.543 5.83-5.68 5.83-3.136 0-5.678-2.611-5.678-5.83 0-3.22 2.542-5.83 5.678-5.83 3.137 0 5.68 2.61 5.68 5.83z"
    fill="#fff" />
  <path fill-rule="evenodd" clip-rule="evenodd"
    d="M30.718 21.177c0 1.953-1.543 3.537-3.446 3.537-1.903 0-3.446-1.584-3.446-3.537 0-1.954 1.543-3.538 3.446-3.538 1.903 0 3.446 1.584 3.446 3.538z"
    fill="#3F4756" />
  <path fill-rule="evenodd" clip-rule="evenodd"
    d="M26.058 19.134c0 .605-.477 1.096-1.068 1.096-.589 0-1.068-.491-1.068-1.096 0-.606.479-1.097 1.068-1.097.59 0 1.068.49 1.068 1.097zM52.904 17.938c0 .605-.478 1.096-1.068 1.096-.59 0-1.068-.491-1.068-1.096 0-.606.479-1.096 1.068-1.096.59 0 1.068.49 1.068 1.096z"
    fill="#fff" />
  <path fill-rule="evenodd" clip-rule="evenodd"
    d="M48.633 12.43c-6.417.682-5.974 11.133 4.648 16.584 0 0 6.632-2.331 3.54-13.517 0 0-1.77-3.747-8.188-3.066z"
    fill="#BF8D00" />
  <path fill-rule="evenodd" clip-rule="evenodd"
    d="M55.168 19.367c0 2.567-2.028 4.65-4.529 4.65-2.502 0-4.53-2.083-4.53-4.65 0-2.569 2.028-4.65 4.53-4.65 2.501 0 4.53 2.081 4.53 4.65z"
    fill="#fff" />
  <path fill-rule="evenodd" clip-rule="evenodd"
    d="M52.904 19.254c0 1.705-1.347 3.088-3.009 3.088s-3.01-1.383-3.01-3.088c0-1.706 1.348-3.09 3.01-3.09 1.662 0 3.01 1.384 3.01 3.09z"
    fill="#3F4756" />
  <path fill-rule="evenodd" clip-rule="evenodd"
    d="M2.523 18.336s5.63.399 8.737 8.172c0 0-4.077 1.195-7.378 0 0 0-2.135-2.591-1.359-8.172z" fill="#BF8D00" />
  <path fill-rule="evenodd" clip-rule="evenodd"
    d="M31.017 5.538s6.258 1.438 8.394 2.234c2.136.798 5.825 1.197 7.183-.796 0 0 1.554-2.193.583-4.784 0 0-1.645 1.633-3.884 2.79 0 0 1.36-2.989-.776-4.982 0 0-2.81 5.893-11.5 5.538z"
    fill="#FDD835" />
  <path fill-rule="evenodd" clip-rule="evenodd"
    d="M44.265 32.886s.194-1.794 1.358-2.192c1.166-.398 6.213-.798 8.737 0 0 0 1.554.597 1.747 2.59.195 1.993-1.164 5.78-4.853 5.78-2.524 0-7.377-1.593-6.99-6.178z"
    fill="#3F4756" />
  <path fill-rule="evenodd" clip-rule="evenodd"
    d="M58.437 35.676s-1.748 10.962-11.455 10.962c0 0-10.348.825-10.318 9.482 0 0 13.618 1.824 21.773-6.519 0 0 6.989-6.352 5.436-19.306 0 0 .369 3.981-2.34 5.479 0 0-1.155.9-3.096-.098z"
    fill="#BF8D00" />
  <path fill-rule="evenodd" clip-rule="evenodd"
    d="M31.31 37.375l.948.861-1.875 1.925s6.212 3.986 13.202 3.588c0 0 4.077 0 6.019-1.993 0 0 .484-1.808.776-2.748 0 0 .97-.043 1.89-.048l-.629 3.293s.609 1.279 3.12 1.039c0 0-.692.656-1.274 1.254 0 0-1.846-.1-3.01-1.296 0 0-8.154 5.979-20.968-2.392L27.27 43.01s1.127-3.642 4.039-5.635z"
    fill="#3F4756" />
  <mask id="prefix__b" maskUnits="userSpaceOnUse" x="17" y="53" width="44" height="15">
    <path fill-rule="evenodd" clip-rule="evenodd" d="M17.577 53.29h43.36v14.251h-43.36v-14.25z" fill="#fff" />
  </mask>
  <g mask="url(#prefix__b)">
    <path fill-rule="evenodd" clip-rule="evenodd"
      d="M41.941 60.964s-1.94 1.196-3.3-.199c0 0-5.63 4.583-13.979 6.777 0 0-7.085-9.866-7.085-14.251 0 0 12.62 0 21.064 2.89 0 0 1.942-.996 3.3-.2 0 0 13.947-3.103 18.995-2.106 0 0-1.986 9.176-5.653 13.667 0 0-6.449-2.293-13.342-6.578z"
      fill="#3F4756" />
  </g>
  <path fill-rule="evenodd" clip-rule="evenodd"
    d="M49.808 17.765c0 .828-.654 1.5-1.462 1.5-.806 0-1.46-.672-1.46-1.5s.654-1.5 1.46-1.5c.808 0 1.462.672 1.462 1.5z"
    fill="#fff" />
  <path fill-rule="evenodd" clip-rule="evenodd"
    d="M42.517 0s-1.238 5.816-3.98 7.275L43.45 4.93S44.633 2.05 42.517 0zM47.176 2.192s1.045 2.292-.582 4.784c0 0-1.407 1.17-2.475 1.195 0 0 3.009-3.288 3.057-5.98z"
    fill="#D8B212" />
  <path fill-rule="evenodd" clip-rule="evenodd"
    d="M84.3 67.681a.735.735 0 01-.543-.24.774.774 0 01-.233-.557V46.192c0-.234.072-.43.217-.59a.721.721 0 01.56-.239h9.596c2.63 0 4.586.553 5.87 1.658 1.283 1.105 1.925 2.678 1.925 4.719 0 1.02-.264 1.902-.792 2.646s-1.113 1.286-1.755 1.626c.85.383 1.564 1.015 2.143 1.897.58.882.87 1.876.87 2.981 0 2.147-.688 3.815-2.065 5.006-1.377 1.19-3.35 1.785-5.917 1.785H84.3zm8.945-13.486c.766 0 1.356-.213 1.77-.638.414-.425.621-.978.621-1.658 0-.659-.201-1.196-.605-1.61-.404-.415-1-.622-1.786-.622h-3.882v4.528h3.882zm.28 9.182c.807 0 1.433-.24 1.878-.717.445-.479.668-1.068.668-1.77 0-.723-.228-1.323-.683-1.801-.456-.478-1.077-.718-1.864-.718h-4.161v5.006h4.162zm12.733 4.304a.736.736 0 01-.544-.239.776.776 0 01-.233-.558V46.192c0-.234.073-.43.218-.59a.72.72 0 01.559-.239h8.54c2.733 0 4.871.638 6.413 1.913 1.543 1.275 2.314 3.071 2.314 5.388 0 1.488-.336 2.753-1.009 3.794-.673 1.042-1.6 1.85-2.78 2.423l4.193 7.78a.811.811 0 01.093.35c0 .17-.062.325-.186.463a.601.601 0 01-.466.207h-4.379c-.601 0-1.025-.287-1.273-.86l-3.417-6.92h-2.981v6.983a.76.76 0 01-.233.574.799.799 0 01-.575.223h-4.254zm8.509-12.466c.891 0 1.569-.229 2.035-.686.465-.457.698-1.089.698-1.897 0-.807-.233-1.456-.698-1.944-.466-.49-1.144-.734-2.035-.734h-3.447v5.26h3.447zM136.072 68c-2.94 0-5.259-.733-6.956-2.2-1.698-1.467-2.599-3.624-2.702-6.472a86.168 86.168 0 01-.031-2.742c0-1.233.01-2.158.031-2.774.082-2.806.988-4.968 2.717-6.488 1.729-1.52 4.043-2.28 6.941-2.28 2.878 0 5.182.76 6.91 2.28 1.729 1.52 2.635 3.682 2.718 6.488.041 1.233.062 2.157.062 2.774 0 .638-.021 1.552-.062 2.742-.104 2.848-.999 5.005-2.686 6.472-1.688 1.467-4.002 2.2-6.942 2.2zm.001-4.782c1.076 0 1.935-.335 2.577-1.005.642-.67.984-1.695 1.025-3.077.042-1.232.062-2.114.062-2.646 0-.531-.02-1.392-.062-2.582-.041-1.382-.383-2.407-1.025-3.077-.642-.67-1.501-1.004-2.577-1.004-1.098 0-1.967.334-2.609 1.004-.642.67-.984 1.695-1.025 3.077a79.289 79.289 0 00-.031 2.582c0 1.148.01 2.03.031 2.646.041 1.382.383 2.408 1.025 3.077.642.67 1.511 1.005 2.609 1.005zm13.664 4.463a.796.796 0 01-.574-.223.757.757 0 01-.233-.574V45.841c0-.233.077-.425.233-.574a.796.796 0 01.574-.223h3.789c.228 0 .414.075.559.223.145.15.218.34.218.574v10.65l4.13-4.847c.042-.042.119-.117.233-.223.114-.106.233-.186.357-.24.124-.052.28-.079.466-.079h4.379c.186 0 .347.069.481.207a.721.721 0 01.202.526.71.71 0 01-.217.51l-5.466 6.186 6.242 7.938c.145.192.218.351.218.479a.726.726 0 01-.202.526.685.685 0 01-.513.207h-4.503c-.269 0-.471-.042-.605-.127a2.851 2.851 0 01-.482-.415l-4.72-5.994v5.739a.804.804 0 01-.218.558.721.721 0 01-.559.24h-3.789zm25.125.319c-2.525 0-4.513-.696-5.962-2.088-1.45-1.393-2.195-3.417-2.237-6.074v-.988c.083-2.53.849-4.507 2.299-5.93 1.449-1.425 3.406-2.137 5.869-2.137 1.781 0 3.287.367 4.519 1.1a6.898 6.898 0 012.764 3.029c.611 1.286.916 2.747.916 4.384v.797c0 .234-.077.43-.232.59a.772.772 0 01-.575.239h-9.845v.191c.021.957.238 1.727.652 2.312.414.584 1.004.877 1.77.877.497 0 .896-.101 1.196-.303.3-.202.585-.463.854-.781.186-.213.337-.346.45-.399.114-.053.295-.08.544-.08h4.068a.71.71 0 01.482.176.55.55 0 01.202.43c0 .553-.306 1.201-.917 1.945-.61.744-1.501 1.381-2.67 1.913-1.17.531-2.552.797-4.147.797zm2.454-10.33v-.064c0-1.02-.217-1.812-.652-2.375-.435-.564-1.046-.845-1.832-.845-.787 0-1.393.281-1.817.845-.425.563-.637 1.355-.637 2.375v.064h4.938zm9.286 10.011a.734.734 0 01-.543-.24.772.772 0 01-.233-.557V51.931c0-.234.072-.43.217-.59a.72.72 0 01.559-.24h3.789c.228 0 .419.08.575.24.155.16.233.356.233.59v1.211a5.934 5.934 0 012.034-1.514c.776-.35 1.641-.526 2.593-.526h1.398c.227 0 .414.074.559.223.145.149.217.34.217.574v3.475a.803.803 0 01-.217.558.722.722 0 01-.559.24h-3.137c-.828 0-1.465.233-1.91.7-.445.468-.668 1.127-.668 1.977v8.035a.76.76 0 01-.233.574.798.798 0 01-.574.223h-4.1z"
    fill="#3F4756" />
</svg>
