<svg width="20" height="20" fill="none" xmlns="http://www.w3.org/2000/svg">
  <path fill-rule="evenodd" clip-rule="evenodd"
    d="M2.999 8.994a6.004 6.004 0 015.998-5.996 6.004 6.004 0 015.998 5.996 6.004 6.004 0 01-5.998 5.996A6.004 6.004 0 013 8.994zm16.56 8.446l-3.24-3.231a8.944 8.944 0 001.675-5.215C17.994 4.027 13.967 0 8.997 0 4.03 0 0 4.027 0 8.994s4.029 8.994 8.997 8.994c1.938 0 3.73-.619 5.198-1.662l3.246 3.236a1.495 1.495 0 002.12-.003 1.496 1.496 0 00-.002-2.119z"
    fill="#3F4756" /></svg>
