<svg width="24" height="24" fill="none" xmlns="http://www.w3.org/2000/svg"><rect width="24" height="24" rx="4" fill="#F2720C"/><path d="M15.8 12.3c-.5 0-1.5 1-3.5 1s-3-1-3.5-1c-.55 0-1 .45-1 1 0 .5.3.75.5.85.6.35 2.5 1.15 2.5 1.15L8.65 18s-.4.45-.4.8c0 .55.45 1 1 1 .5 0 .75-.35.75-.35l2.3-2.65 2.25 2.65s.25.35.75.35c.55 0 1-.45 1-1 0-.3-.4-.8-.4-.8l-2.1-2.7s1.9-.8 2.5-1.15c.2-.15.5-.35.5-.85 0-.55-.45-1-1-1z" fill="#fff"/><path fill-rule="evenodd" clip-rule="evenodd" d="M8.8 8.3c0-1.95 1.55-3.5 3.5-3.5s3.5 1.55 3.5 3.5-1.55 3.5-3.5 3.5-3.5-1.55-3.5-3.5zm1.75 0c0 .95.8 1.75 1.75 1.75s1.75-.8 1.75-1.75-.8-1.75-1.75-1.75-1.75.8-1.75 1.75z" fill="#fff"/></svg>
