<svg width="19" height="16" fill="none" xmlns="http://www.w3.org/2000/svg">
  <path fill-rule="evenodd" clip-rule="evenodd"
    d="M14.554 15.823a.925.925 0 001.45-.556C16.69 12 18.36 3.731 18.985.76A.628.628 0 0018.15.04C14.83 1.282 4.608 5.158.43 6.72a.661.661 0 00.04 1.25 334.8 334.8 0 014.333 1.355s1.15 3.508 1.749 5.292c.075.224.249.4.477.46a.68.68 0 00.642-.165l2.451-2.338s2.828 2.095 4.432 3.25zM5.838 8.882l1.33 4.43.294-2.805 8.063-7.35a.224.224 0 00-.271-.352L5.838 8.882z"
    fill="#3F4756" /></svg>
