<svg width="24" height="24" fill="none" xmlns="http://www.w3.org/2000/svg"><rect width="24" height="24" rx="4" fill="#00ABF1"/><path d="M19.8 7.35a6.026 6.026 0 01-1.697.453 2.903 2.903 0 001.3-1.592c-.572.33-1.204.569-1.877.698A2.986 2.986 0 0015.37 6c-1.632 0-2.955 1.289-2.955 2.878 0 .225.026.445.077.656a8.463 8.463 0 01-6.09-3.007c-.254.425-.4.919-.4 1.447 0 .998.522 1.879 1.315 2.395a3.007 3.007 0 01-1.338-.36v.036c0 1.395 1.018 2.558 2.37 2.822a3.049 3.049 0 01-1.335.05c.376 1.143 1.467 1.975 2.76 1.998a6.027 6.027 0 01-3.67 1.232c-.238 0-.473-.013-.704-.04A8.523 8.523 0 009.929 17.4c5.434 0 8.406-4.385 8.406-8.188 0-.125-.003-.25-.009-.373A5.92 5.92 0 0019.8 7.35z" fill="#fff"/></svg>
