<svg width="24" height="24" fill="none" xmlns="http://www.w3.org/2000/svg"><path d="M0 4a4 4 0 014-4h16a4 4 0 014 4v16a4 4 0 01-4 4H4a4 4 0 01-4-4V4z" fill="#4C75A3"/><path fill-rule="evenodd" clip-rule="evenodd" d="M11.794 17.355h1.148s.346-.038.523-.226c.163-.173.158-.497.158-.497s-.022-1.518.692-1.742c.705-.22 1.61 1.468 2.569 2.116.725.491 1.276.384 1.276.384l2.564-.035s1.34-.082.705-1.122c-.052-.085-.37-.769-1.906-2.174-1.609-1.472-1.393-1.234.544-3.779 1.18-1.55 1.65-2.496 1.503-2.901-.14-.386-1.008-.285-1.008-.285l-2.887.018s-.214-.029-.372.065c-.155.092-.255.305-.255.305s-.457 1.2-1.067 2.22c-1.285 2.152-1.799 2.266-2.01 2.132-.488-.311-.366-1.251-.366-1.919 0-2.086.321-2.955-.625-3.18-.314-.075-.545-.125-1.347-.133-1.03-.01-1.902.004-2.396.242-.328.159-.582.512-.427.532.19.025.623.115.852.423.296.397.285 1.288.285 1.288s.17 2.455-.397 2.76c-.389.21-.923-.218-2.069-2.17a18.04 18.04 0 01-1.03-2.107s-.086-.206-.238-.317c-.185-.134-.444-.176-.444-.176l-2.743.017s-.412.012-.563.188c-.135.158-.01.482-.01.482S4.6 12.72 7.031 15.216c2.23 2.29 4.762 2.139 4.762 2.139z" fill="#fff"/></svg>
