<svg width="23" height="13" fill="none" xmlns="http://www.w3.org/2000/svg">
  <path fill-rule="evenodd" clip-rule="evenodd"
    d="M12.408 12.348s.408-.043.617-.259c.192-.198.186-.57.186-.57s-.027-1.744.814-2c.83-.253 1.895 1.684 3.023 2.43.854.563 1.503.44 1.503.44l3.018-.04s1.578-.095.83-1.289c-.062-.097-.437-.883-2.244-2.496-1.893-1.69-1.64-1.417.64-4.339 1.388-1.78 1.944-2.865 1.77-3.33C22.4.45 21.379.567 21.379.567l-3.399.02s-.252-.033-.439.075c-.182.105-.3.35-.3.35s-.538 1.377-1.255 2.548c-1.513 2.471-2.118 2.602-2.365 2.449-.575-.358-.431-1.437-.431-2.204 0-2.394.377-3.393-.736-3.651-.37-.086-.642-.143-1.586-.152-1.213-.012-2.24.003-2.82.277-.387.183-.685.588-.503.611.225.03.733.132 1.003.485.348.456.336 1.48.336 1.48s.2 2.818-.468 3.168c-.458.24-1.086-.25-2.435-2.492-.691-1.148-1.213-2.418-1.213-2.418s-.1-.237-.28-.364C4.27.596 3.966.548 3.966.548l-3.23.02S.252.58.074.784c-.159.18-.013.553-.013.553s2.528 5.688 5.39 8.555c2.626 2.629 5.607 2.456 5.607 2.456h1.35z"
    fill="#3F4756" /></svg>
