<svg width="24" height="24" fill="none" xmlns="http://www.w3.org/2000/svg"><path fill-rule="evenodd" clip-rule="evenodd" d="M0 4a4 4 0 014-4h16a4 4 0 014 4v16a4 4 0 01-4 4H4a4 4 0 01-4-4V4z" fill="red"/><path fill-rule="evenodd" clip-rule="evenodd" d="M6.63 17.884c1.796.1 3.594.123 5.393.113.24 0 .479 0 .719.002.48.001.961.003 1.44-.002a68.725 68.725 0 003.671-.144c1.144-.08 1.924-.578 2.251-1.85.145-.553.182-1.117.22-1.68.107-1.67.104-3.341-.028-5.011-.047-.616-.135-1.214-.36-1.791-.234-.601-.666-.973-1.246-1.193-.385-.145-.79-.165-1.194-.185l-.135-.007a108.907 108.907 0 00-4.367-.13c-1.889-.021-3.779.02-5.665.099-.108.005-.217.008-.326.012-.449.015-.897.03-1.337.119-.651.13-1.191.443-1.502 1.072-.131.268-.23.55-.297.839-.167.706-.196 1.431-.225 2.151l-.004.1a34.449 34.449 0 00.06 4.255c.055.687.146 1.36.436 2 .172.385.445.657.8.853.53.292 1.113.343 1.697.378zm5.714-4.57L10.25 14.48V9.03l2.635 1.47 2.251 1.255-2.793 1.559z" fill="#fff"/></svg>
