<svg xmlns="http://www.w3.org/2000/svg" xmlns:xlink="http://www.w3.org/1999/xlink"><defs><symbol fill="none" viewBox="0 0 384 288" id="brand-big"><path fill-rule="evenodd" clip-rule="evenodd" d="M104.495 274.397c0 2.818 31.965 5.103 71.396 5.103s71.395-2.285 71.395-5.103c0-2.819-31.964-5.104-71.395-5.104s-71.396 2.285-71.396 5.104z" fill="#CDD5E0" /><path fill-rule="evenodd" clip-rule="evenodd" d="M364.511 194H15.719C11.456 194 8 190.582 8 186.366v-23.662l12.845-37.952 15.232 25.403 17.154-65.317 15.107 29.87 9.26-18.019 17.623 38.429 18.494-60.622 19.142 52.029 6.464-17.526 4.241 3.346 6.421-17.03 10.951 21.46 16.131-49.519 16.701 34.751 7.81-11.816 9.115 13.824 11.948-30.195 10.283 22.87 8.961-10.122 18.221 33.09 13.407-30.43 6.009 8.938 16.181-37.58 16.377 54.122 14.039-25.404 8.365 6.01 13.142-25.66 6.272 4.842L376 24v158.638c0 6.275-5.143 11.362-11.489 11.362z" fill="#EBEEF2" /><path fill-rule="evenodd" clip-rule="evenodd" d="M158.175 43.522s29.595 165.803-42.179 196.819c0 0-38.301 10.339-34.922-36.831 0 0-9.172 55.651 42.968 52.742 0 0 16.898-.483 29.451-12.599 0 0 .12 17.083 5.309 31.985 0 0 12.975 1.514 24.2 0 0 0 1.751-.242.966-2.241-.784-1.999-3.018-9.572-4.466-12.055 0 0-1.509-.849-2.233-.97 0 0-7.544 2.12-11.647 2.241 0 0-3.601-10.721 7.584-32.69l13.518-7.513s-5.713 30.33 4.847 50.744c0 0 16.102 2.191 26.366.754 0 0 1.618-.249.872-2.31-.747-2.061-3.236-8.306-4.418-10.305 0 0-2.675-2.061-3.67-2.373 0 0-10.204 3.06-11.758 3.06 0 0-7.33-15.419 18.981-63.397 26.312-47.977 0-103.708 0-103.708l-17.055-35.136s-36.905-15.958-42.714-16.217z" fill="#FDD835" /><path fill-rule="evenodd" clip-rule="evenodd" d="M176.865 83.968a147.242 147.242 0 0013.459-2.844c4.542-1.182 8.98-.559 12.745 1.373 2.795-.394 5.618-.674 8.435-.89L200.889 59.74s-36.905-15.959-42.714-16.218c0 0 1.334 7.482 2.749 19.553 5.036 7 10.115 13.957 14.66 21.21a9.074 9.074 0 011.281-.317z" fill="#D1AA02" /><path fill-rule="evenodd" clip-rule="evenodd" d="M191.572 273.154s16.1 2.191 26.366.754c0 0 1.617-.249.871-2.31-.747-2.061-3.235-8.306-4.418-10.305 0 0-2.675-2.061-3.67-2.373 0 0-10.203 3.06-11.759 3.06 0 0-7.33-15.42 18.982-63.397 26.312-47.977 0-103.708 0-103.708l-15.441-31.808-.051-.032-25.039-1.146c14.453 17.201 7.352 50.83 7.352 50.83l-9.985 15.153s18.203 29.618 13.907 56.661c-2.043 12.856-7.116 26.754-15.481 45.39l13.518-7.513s-5.713 30.33 4.848 50.744z" fill="#D1AA02" /><path fill-rule="evenodd" clip-rule="evenodd" d="M180.528 61.355s-3.818 10.985-3.116 31.339l3.116-3.392s1.749 13.569 4.254 26.168c0 0 5.08 41.516 5.402 56.701.321 15.185 3.541 31.501 10.621 31.985 7.081.485 25.642-15.125 26.714-48.623 1.448-45.231-24.804-88.115-28.659-93.209 0 0-15.113-3.554-18.332-.969z" fill="#FFFAF5" /><path fill-rule="evenodd" clip-rule="evenodd" d="M198.114 75.481c3.336 1.356 6.791 2.322 10.245 3.291-4.42-8.816-8.211-14.746-9.499-16.447 0 0-15.113-3.555-18.332-.97 0 0-2.655 7.682-3.124 22.059 6.091-2.487 12.277-4.728 18.251-7.494.567-.594 1.415-.863 2.459-.439zM194.107 196.24c-.07-.755-.204-1.753-.25-2.12-.119-.74-.235-1.48-.367-2.218-.779-4.311-1.798-8.557-2.952-12.765.558 6.873 1.744 13.441 3.648 18.126-.028-.341-.047-.683-.079-1.023z" fill="#CDD5E0" /><path fill-rule="evenodd" clip-rule="evenodd" d="M209.104 25.56l1.599-1.404s1.6-1.605 2.399.602c.8 2.206 1.331 5.819-.533 7.726 0 0-2.865-5.52-3.465-6.923z" fill="#D8B212" /><path fill-rule="evenodd" clip-rule="evenodd" d="M158.322 22.952s4.398-4.817 9.797-7.225c5.397-2.409 8.696-2.509 14.494-2.107 5.798.4 10.596-3.413 11.196-5.62 0 0 2 1.405.8 5.018 0 0 3.199-1.405 3.998-2.81 0 0 1 2.408-.599 4.816 0 0 8.797 3.412 11.396 10.436 2.599 7.023 6.197 10.035 6.397 12.844 0 0 .4 2.81-1.599 5.017-1.999 2.208-3.998.602-3.998.602s-2.2-.401-3-2.608c0 0-7.397-2.007-11.196.2 0 0-15.195 5.62-8.996-3.613 0 0-4.798 2.61-6.797 5.82-2.001 3.211-8.398 4.014-12.397 1.807-3.998-2.208-4.199-5.82-3.798-9.433.399-3.613-4.998-12.643-11.396-13.044 0 0 .999-1.003 5.698-.1z" fill="#FDD835" /><path fill-rule="evenodd" clip-rule="evenodd" d="M215.801 38.304s.401 2.81-1.598 5.017c-2.001 2.208-3.999.602-3.999.602s-2.2-.401-3-2.609c0 0-7.397-2.007-11.196.2 0 0-15.194 5.62-8.996-3.612 0 0-4.798 2.61-6.798 5.82-1.999 3.211-8.396 4.015-12.396 1.807-3.998-2.208-4.198-5.82-3.798-9.433.4-3.612-4.998-12.643-11.396-13.044 0 0-8.397 13.245 4.998 20.47 0 0 5.198 20.27 31.99 21.073 26.79.801 27.19-20.27 26.189-26.291z" fill="#D1AA02" /><path fill-rule="evenodd" clip-rule="evenodd" d="M167.619 24.858s-1.799 10.636 8.197 15.052c0 0 6.597 1.003 13.394-5.82 0 0 1.434-11.745-8.196-12.643-8.597-.804-13.395 3.411-13.395 3.411z" fill="#BF8D00" /><path fill-rule="evenodd" clip-rule="evenodd" d="M184.213 29.323c0 3.241-2.617 5.87-5.848 5.87-3.23 0-5.849-2.629-5.849-5.87 0-3.242 2.619-5.87 5.849-5.87 3.231 0 5.848 2.628 5.848 5.87z" fill="#fff" /><path fill-rule="evenodd" clip-rule="evenodd" d="M181.658 29.323a3.555 3.555 0 01-3.549 3.562 3.556 3.556 0 01-3.549-3.562 3.556 3.556 0 013.549-3.561 3.555 3.555 0 013.549 3.561z" fill="#3F4756" /><path fill-rule="evenodd" clip-rule="evenodd" d="M176.86 27.266a1.1 1.1 0 11-2.199 0 1.1 1.1 0 112.199 0zM204.506 26.063a1.1 1.1 0 11-2.199 0 1.1 1.1 0 112.199 0z" fill="#fff" /><path fill-rule="evenodd" clip-rule="evenodd" d="M200.107 20.516c-6.608.688-6.151 11.21 4.786 16.699 0 0 6.866-2.87 4.389-12.21-2.256-2.635-2.567-5.174-9.175-4.489z" fill="#BF8D00" /><path fill-rule="evenodd" clip-rule="evenodd" d="M206.836 27.501c0 2.585-2.088 4.682-4.663 4.682-2.577 0-4.665-2.097-4.665-4.682 0-2.585 2.088-4.682 4.665-4.682 2.575 0 4.663 2.097 4.663 4.682z" fill="#fff" /><path fill-rule="evenodd" clip-rule="evenodd" d="M204.505 27.387a3.105 3.105 0 01-3.098 3.111 3.105 3.105 0 01-3.099-3.11 3.105 3.105 0 013.099-3.112 3.105 3.105 0 013.098 3.111z" fill="#3F4756" /><path fill-rule="evenodd" clip-rule="evenodd" d="M152.624 26.464s5.798.4 8.997 8.228c0 0-4.198 1.204-7.598 0 0 0-2.199-2.61-1.399-8.228z" fill="#BF8D00" /><path fill-rule="evenodd" clip-rule="evenodd" d="M181.967 13.576s6.444 1.448 8.643 2.251c2.199.803 5.999 1.204 7.397-.803 0 0 1.6-2.208.6-4.816 0 0-1.694 1.643-3.998 2.81 0 0 1.399-3.011-.8-5.018 0 0-2.893 5.934-11.842 5.576z" fill="#FDD835" /><path fill-rule="evenodd" clip-rule="evenodd" d="M195.609 41.114s.2-1.807 1.398-2.208c1.201-.402 6.399-.803 8.998 0 0 0 1.599.602 1.8 2.61.199 2.006-1.2 5.82-4.999 5.82-2.599 0-7.598-1.607-7.197-6.222z" fill="#3F4756" /><path fill-rule="evenodd" clip-rule="evenodd" d="M210.204 43.923s-1.8 11.038-11.796 11.038c0 0-10.656.83-10.626 9.546 0 0 14.024 1.838 22.422-6.563 0 0 7.196-6.394 5.597-19.44 0 0 .38 4.01-2.409 5.517 0 0-1.19.905-3.188-.098z" fill="#BF8D00" /><path fill-rule="evenodd" clip-rule="evenodd" d="M182.268 45.634l.976.867-1.931 1.938s6.399 4.013 13.596 3.613c0 0 4.198 0 6.198-2.007 0 0 .5-1.82.799-2.767 0 0 1.001-.044 1.947-.048l-.647 3.316s.626 1.287 3.212 1.045c0 0-.713.661-1.313 1.263 0 0-1.899-.1-3.099-1.305 0 0-8.397 6.021-21.592-2.407l-2.304 2.166s1.16-3.667 4.158-5.674zM194.836 68.279s-1.886 1.373-3.404.095c0 0-5.372 5.104-13.744 8.05 0 0-8.137-9.262-8.522-13.66 0 0 12.945-1.13 21.863 1.012 0 0 1.905-1.174 3.368-.495 0 0 14.035-4.363 19.302-3.815 0 0-1.232 9.382-4.598 14.215 0 0-6.817-1.721-14.265-5.402z" fill="#3F4756" /><path fill-rule="evenodd" clip-rule="evenodd" d="M200.336 25.395a1.015 1.015 0 11-2.028 0 1.015 1.015 0 112.028 0z" fill="#fff" /><path fill-rule="evenodd" clip-rule="evenodd" d="M193.809 8s-1.275 5.858-4.099 7.326l5.06-2.36s1.218-2.9-.961-4.966zM198.607 10.208s1.076 2.307-.6 4.816c0 0-1.448 1.18-2.549 1.205 0 0 3.099-3.312 3.149-6.021z" fill="#D8B212" /><path fill-rule="evenodd" clip-rule="evenodd" d="M178.662 99.479s16.028 32.812 25.844 65.122l9.254 23.805s-2.093-1.453-2.977-2.585l.804 6.22s-2.655.404-3.942-1.696c0 0-3.139 0-3.461-2.1 0 0-3.541-.727-3.701-3.877-.16-3.15-3.38-18.658-3.38-18.658s-16.735-28.269-21.323-35.377c-4.586-7.108 2.882-30.854 2.882-30.854z" fill="#FDD835" /><path fill-rule="evenodd" clip-rule="evenodd" d="M186.862 148.513a4465.947 4465.947 0 0110.242 17.196s3.219 15.509 3.38 18.658c.16 3.151 3.701 3.878 3.701 3.878.322 2.1 3.46 2.1 3.46 2.1 1.287 2.1 3.943 1.696 3.943 1.696l-.805-6.22c.885 1.131 2.977 2.585 2.977 2.585l-9.253-23.806c-3.268-10.755-3.605-11.505-7.081-21.082l1.448 9.692-4.466-3.937.182 3.816-4.888-6.905 1.327 7.026s-2.808-7.541-5.809-7.434l1.642 2.737zM157.739 180.307s2.004 4.148 9.664 9.934c0 0 1.538 1.375.512 2.89-1.026 1.514-11.617-2.182-12.87-3.06l2.694-9.764zM161.273 161.864s6.883 6.734 11.712 8.672c0 0 1.285.423 1.306 2.12.022 1.696-9.97 1.121-14.781-.44l1.763-10.352zM163.359 142.425s5.16 3.759 10.169 5.879c0 0 3.735 1.878 3.798 3.635.063 1.756-8.562 2.329-14.932 1.134l.965-10.648zM164.165 123.951s3.112 3.67 5.696 5.897c0 0 3.908 2.887 3.908 5.25 0 2.102-8.641.479-9.953-.325l.349-10.822z" fill="#3F4756" /><path fill-rule="evenodd" clip-rule="evenodd" d="M296.64 151.671s-18.398 37.774-33.73 51.485l31.32 9.234s18.03-28.116 30.853-53.86l-28.443-6.859z" fill="#FDD835" /><path fill-rule="evenodd" clip-rule="evenodd" d="M158.642 204.167s-4.989 23.089-5.149 39.486c0 0-14.184 16.916-45.313 11.406 0 0 41.933-1.288 50.462-50.892z" fill="#D1AA02" /><path fill-rule="evenodd" clip-rule="evenodd" d="M202.456 232.381c-7.171 21.848-3.628 29.599-3.628 29.599 1.556 0 11.758-3.06 11.758-3.06.996.312 3.671 2.373 3.671 2.373 1.183 1.999 3.671 8.244 4.417 10.305.748 2.061-.87 2.31-.87 2.31-10.266 1.437-26.366-.754-26.366-.754-5.665-10.949-6.647-24.751-6.341-35.197 0 0 1.466 7.392 1.708 10.179.241 2.786 2.292-16.236 4.465-16.961 2.172-.728.242 14.538.242 14.538l3.016-6.664.725 2.665s7.67-17.662 10.533-17.917c0 0-2.723 6.736-3.33 8.584zM173.168 229.922c-11.186 21.97-7.584 32.691-7.584 32.691 4.103-.12 11.647-2.24 11.647-2.24.723.12 2.232.969 2.232.969 1.449 2.484 3.681 10.056 4.467 12.054.785 2-.966 2.242-.966 2.242-11.225 1.515-24.199 0-24.199 0-5.19-14.902-5.311-31.985-5.311-31.985l2.071 7.147s1.449-17.09 3.299-18.419c0 0 1.45-1.41 1.771 4.406l.161 8.158 2.977-7.673.724 4.605s5.874-15.67 9.736-15.348l-1.025 3.393zM124.043 256.253c-52.141 2.908-42.969-52.743-42.969-52.743-3.379 47.17 34.922 36.832 34.922 36.832s-1.693 2.2-4.205 4.037c0 0 1.369 1.131 3.461 2.344l-1.69 3.876 10.481 5.654z" fill="#3F4756" /><path fill-rule="evenodd" clip-rule="evenodd" d="M208.229 76.098s16.147-5.395 20.465-14.652c4.318-9.255 2.226-27.895-8.396-33.518 0 0-2.453-.581-3.66-1.204-1.207-.623-7.363-2.701-11.95-2.207 0 0-.804.12-1.206-.682-.402-.803 5.391-2.661 7.482-2.741 0 0-6.598-1.374-11.023 0 0 0-1.126-.037-.966-1.069.162-1.03 5.311-2.404 7.081-2.242 0 0-3.942-.081-8.207 1.291 0 0-2.494.888-2.816-.242-.322-1.13 5.471-4.039 8.529-4.039 0 0-3.058-.893-7.001 1.25 0 0-1.69.366-2.011-.765-.322-1.131 7.323-4.443 9.978-4.443 2.655 0 14.483 5.538 20.438 9.19 5.954 3.654 18.346 22.795 15.69 43.392-2.656 20.596-23.657 31.016-23.657 31.016l-8.77-18.335z" fill="#D1AA02" /><path fill-rule="evenodd" clip-rule="evenodd" d="M234.005 31.273c-3.113-5.69-6.611-9.758-9.039-11.247-5.955-3.653-17.783-9.19-20.438-9.19-2.655 0-10.3 3.31-9.978 4.442.321 1.13 2.011.765 2.011.765 3.943-2.143 7.001-1.25 7.001-1.25-3.058 0-8.85 2.909-8.53 4.04.323 1.13 2.817.241 2.817.241 3.039-.978 5.906-1.217 7.308-1.274-2.191.192-6.042 1.335-6.182 2.226-.16 1.03.966 1.068.966 1.068 4.425-1.374 11.023 0 11.023 0-2.091.08-7.885 1.938-7.482 2.74.402.803 1.207.683 1.207.683 4.586-.495 10.742 1.584 11.948 2.207 1.208.623 3.661 1.204 3.661 1.204 4.293 2.272 7.192 6.673 8.839 11.72 0 0 1.052 2.878 1.48 7.126 0 0 .544-6.045-.282-9.559 0 0 1.771.846 3.011 3.38 0 0-1.181-7.012-3.188-10.43l3.847 1.108zM282.854 177.625s4.671-8.012 17.98-3.772c13.31 4.24 9.108 11.038 9.108 11.038s-5.955 6.094-18.739 2.812c-12.785-3.28-8.349-10.078-8.349-10.078z" fill="#3F4756" /><path fill-rule="evenodd" clip-rule="evenodd" d="M277.132 115.836l12.231 11.955s21.303-9.714 32.99-29.402l-14.977-11.206s-11.978 18.476-30.244 28.653z" fill="#FDD835" /><path fill-rule="evenodd" clip-rule="evenodd" d="M295.449 103.786s-4.466 4.574 2.263 9.89c6.729 5.318 10.119 0 10.119 0s2.213-4.418-3.462-8.687c-6.034-4.539-8.92-1.203-8.92-1.203z" fill="#3F4756" /><path fill-rule="evenodd" clip-rule="evenodd" d="M93.368 45.036s14.178 13.363 38.874 18.1l6.251-16.87s-21.19-3.486-36.74-18.135l-8.385 16.905zM88.53 177.882s11.777 18.193 39.915 26.285l14.171-15.094s-25.035-9.088-38.498-26.513c0 0-12.517 11.085-15.587 15.322z" fill="#FDD835" /><path fill-rule="evenodd" clip-rule="evenodd" d="M118.453 40.789s-5.134-1.182-7.741 3.688c-2.609 4.87-.571 9.646 2.118 11.078 2.689 1.433 6.682-3.461 7.659-6.792.978-3.33.735-7.079-2.036-7.974zM71.68 144.719s-9.832 12.146-26.528 19.223l11.687 11.172s18.737-10.921 26.343-23.895l-11.502-6.5z" fill="#3F4756" /><path fill-rule="evenodd" clip-rule="evenodd" d="M147.856 148.49s-10.096-15.723-15.026-36.338l-13.863 8.296s6.357 23.86 20.605 39.663l8.284-11.621z" fill="#FDD835" /><path fill-rule="evenodd" clip-rule="evenodd" d="M119.633 177.963s-6.141-2.371-10.865 2.608c-4.723 4.979-1.889 9.601-.59 10.549 1.299.949 7.321.593 10.746-3.199 3.425-3.795 4.606-8.18.709-9.958zM195.843 119.401c.364-.056.625-.297.784-.728.158-.432.204-.941.135-1.53-.072-.604-.233-1.094-.49-1.463-.252-.372-.561-.531-.913-.478l-1.865.282c.179 1.399.337 2.798.476 4.197l1.873-.28zm-1.106-7.682c.342-.053.577-.271.706-.656.129-.384.147-.862.049-1.431-.093-.55-.264-.99-.504-1.31-.242-.321-.537-.453-.888-.401l-1.726.262c.226 1.265.435 2.531.629 3.797l1.734-.261zm-3.005 11.744a.96.96 0 01-.14-.452 147.215 147.215 0 00-2.36-17.348 1.108 1.108 0 01-.001-.51c.039-.141.105-.22.207-.236l4.253-.648c1.164-.176 2.129.154 2.883.995.755.84 1.297 2.112 1.593 3.825.147.857.151 1.614.013 2.275-.139.659-.332 1.154-.578 1.482.429.261.82.747 1.184 1.445.36.702.599 1.515.708 2.442.217 1.801.041 3.246-.491 4.334-.533 1.09-1.388 1.723-2.548 1.894l-4.463.665c-.094.016-.181-.039-.26-.163zM204.477 111.122c.396-.06.671-.296.815-.712.146-.416.161-.96.042-1.639-.118-.677-.323-1.205-.605-1.583-.283-.381-.625-.538-1.019-.479-.511.077-1.021.156-1.532.234.277 1.469.53 2.941.76 4.411l1.539-.232zm-2.827 10.861a.947.947 0 01-.144-.45 147.955 147.955 0 00-2.54-17.35 1.156 1.156 0 01-.008-.509c.036-.142.107-.222.205-.237l3.78-.576c1.209-.183 2.273.205 3.179 1.171.905.963 1.553 2.414 1.899 4.36.221 1.249.243 2.332.078 3.25-.163.919-.483 1.66-.944 2.22.929 2.08 1.812 4.16 2.651 6.24.037.104.061.197.07.288a.896.896 0 01-.05.399c-.046.127-.109.193-.193.206l-1.976.295c-.271.04-.482-.172-.638-.636a184.4 184.4 0 00-2.18-5.569l-1.338.201c.252 1.951.466 3.904.639 5.853.016.197-.005.362-.064.497-.059.134-.14.208-.244.225l-1.921.287c-.092.013-.18-.039-.261-.165zM215.96 115.387c.215-.608.255-1.486.102-2.65a71.868 71.868 0 00-.315-2.224c-.074-.447-.2-1.165-.397-2.163-.224-1.154-.541-1.992-.937-2.508-.395-.519-.833-.74-1.31-.668-.486.075-.816.412-.992 1.018-.178.604-.165 1.486.018 2.648.078.497.198 1.222.348 2.167.152.962.268 1.704.351 2.218.184 1.159.448 1.992.806 2.512.36.518.783.741 1.276.666.481-.073.834-.41 1.05-1.016zm-3.934 3.65c-.893-1.114-1.491-2.862-1.871-5.244-.079-.497-.191-1.265-.354-2.299-.161-1.033-.288-1.81-.368-2.329-.37-2.359-.335-4.231.162-5.621.494-1.39 1.371-2.182 2.649-2.376 1.27-.191 2.437.286 3.48 1.442 1.043 1.159 1.828 2.907 2.292 5.255.206 1.031.344 1.805.43 2.322.088.534.205 1.304.333 2.304.31 2.396.121 4.266-.502 5.609-.625 1.343-1.611 2.115-2.937 2.312-1.326.197-2.425-.26-3.314-1.375zM270.133 35.227l6.999 1.72s-3.499 8.607-6.999 14.234l-5.214-1.706s4-9.875 5.214-14.248z" fill="#3F4756" /><path fill-rule="evenodd" clip-rule="evenodd" d="M244.553 115.975l6.999 1.721s-3.499 8.606-6.999 14.233l-5.214-1.706s4-9.875 5.214-14.248z" fill="#FDD835" /><path fill-rule="evenodd" clip-rule="evenodd" d="M213.76 188.406l2.092 2.019-2.092 2.181-2.307-1.608-.67-5.177s1.824 1.472 2.977 2.585z" fill="#3F4756" /><path fill-rule="evenodd" clip-rule="evenodd" d="M199.447 177.646l-7.59-6.047s-1.048 3.645-.404 5.561l8.94 6.256-.946-5.77zM223.209 186.899c-6.587 0-11.925 5.36-11.925 11.971 0 6.612 5.338 11.97 11.925 11.97 6.586 0 11.925-5.358 11.925-11.97 0-6.611-5.339-11.971-11.925-11.971zm0 3.496c4.656 0 8.443 3.802 8.443 8.475 0 4.674-3.787 8.476-8.443 8.476-4.657 0-8.443-3.802-8.443-8.476 0-4.673 3.786-8.475 8.443-8.475z" fill="#404957" /></symbol><symbol fill="none" viewBox="0 0 14 11" id="check-icon-input"><path d="M1 5.038L4.975 9 13 1" stroke="#3F4756" stroke-width="2" stroke-linecap="round" /></symbol><symbol viewBox="0 0 24 24" fill="none" id="chevron-down-icon"><path fill-rule="evenodd" clip-rule="evenodd" d="M12.034 15l-3.858-4.703A.796.796 0 018.3 9.175a.805.805 0 011.127.125l2.606 3.25 2.54-3.251a.804.804 0 011.125-.124.796.796 0 01.125 1.122L12.034 15z" fill="#4989E0" /></symbol><symbol fill="none" viewBox="0 0 6 8" id="chevron-right-icon"><path fill-rule="evenodd" clip-rule="evenodd" d="M6 3.966L1.297 7.824A.796.796 0 01.175 7.7.805.805 0 01.3 6.572l3.25-2.606L.3 1.426A.804.804 0 01.175.302.796.796 0 011.297.176L6 3.966z" fill="#3F4756" /></symbol><symbol fill="none" viewBox="0 0 16 16" id="cross-icon"><path fill-rule="evenodd" clip-rule="evenodd" d="M.294.292a1 1 0 011.414.002l6.284 6.304L14.3.293a1 1 0 111.414 1.414l-6.31 6.307 6.259 6.28a1 1 0 01-1.417 1.412L7.99 9.428l-6.282 6.28a1 1 0 11-1.414-1.415l6.284-6.281L.292 1.706A1 1 0 01.294.292z" fill="#3F4756" /></symbol><symbol fill="none" viewBox="0 0 11 20" id="fb"><path d="M3.25 19.2v-8.675H0V7.432h3.25V4.576C3.25 1.696 5.035 0 7.73 0c1.292 0 2.346.132 2.67.173v3.234H8.23c-1.466 0-1.74.692-1.74 1.666v2.359h3.756l-.53 3.093H6.489V19.2H3.25z" fill="#3F4756" /></symbol><symbol fill="none" viewBox="0 0 24 18" id="hamburger-icon"><path fill-rule="evenodd" clip-rule="evenodd" d="M2 2.83423C1.30964 2.83423 0.75 2.27458 0.75 1.58423C0.75 0.893873 1.30964 0.334229 2 0.334229H22C22.6904 0.334229 23.25 0.893873 23.25 1.58423C23.25 2.27458 22.6904 2.83423 22 2.83423H2ZM2 10.3335C1.30964 10.3335 0.75 9.77381 0.75 9.08345C0.75 8.3931 1.30964 7.83345 2 7.83345H22C22.6904 7.83345 23.25 8.3931 23.25 9.08345C23.25 9.77381 22.6904 10.3335 22 10.3335H2ZM0.75 16.567C0.75 17.2574 1.30964 17.817 2 17.817H22C22.6904 17.817 23.25 17.2574 23.25 16.567C23.25 15.8767 22.6904 15.317 22 15.317H2C1.30964 15.317 0.75 15.8767 0.75 16.567Z" fill="#3F4756" /></symbol><symbol viewBox="0 0 330 330" id="loading-icon"><path d="M165 7.5c-8.284 0-15 6.716-15 15v60c0 8.284 6.716 15 15 15 8.284 0 15-6.716 15-15v-60c0-8.284-6.716-15-15-15zm0 255c-8.284 0-15 6.716-15 15v30c0 8.284 6.716 15 15 15 8.284 0 15-6.716 15-15v-30c0-8.284-6.716-15-15-15zm150-105h-60c-8.284 0-15 6.716-15 15s6.716 15 15 15h60c8.284 0 15-6.716 15-15s-6.716-15-15-15zm-225 15c0-8.284-6.716-15-15-15H15c-8.284 0-15 6.716-15 15s6.716 15 15 15h60c8.284 0 15-6.716 15-15zM281.673 55.827c-5.857-5.858-15.355-5.858-21.213 0l-42.427 42.427c-5.858 5.858-5.858 15.355 0 21.213a14.954 14.954 0 0010.606 4.394 14.95 14.95 0 0010.607-4.394l42.427-42.427c5.858-5.858 5.858-15.355 0-21.213zM90.753 225.533L48.328 267.96c-5.857 5.858-5.857 15.355 0 21.213a14.953 14.953 0 0010.607 4.393c3.839 0 7.678-1.464 10.607-4.393l42.426-42.427c5.857-5.858 5.857-15.355 0-21.213-5.859-5.858-15.356-5.858-21.215 0zM69.541 55.827c-5.858-5.858-15.355-5.857-21.213 0-5.858 5.858-5.858 15.355 0 21.213l42.426 42.427a14.956 14.956 0 0010.607 4.394c3.838 0 7.678-1.465 10.606-4.393 5.858-5.858 5.858-15.355 0-21.213L69.541 55.827z" /></symbol><symbol fill="none" viewBox="0 0 198 68" id="logo"><path fill-rule="evenodd" clip-rule="evenodd" d="M93.249 36.917c-.372 0-.684-.121-.938-.364-.253-.243-.38-.555-.38-.936V8.982h-8.918c-.371 0-.684-.12-.937-.364-.253-.242-.38-.555-.38-.936V1.856c0-.382.127-.702.38-.963.253-.26.566-.39.937-.39h27.515c.372 0 .684.13.937.39.254.26.381.581.381.963v5.826c0 .381-.127.694-.381.936a1.3 1.3 0 01-.937.364h-8.918v26.635c0 .381-.127.693-.38.936a1.305 1.305 0 01-.938.364h-7.043zm23.765 0a1.2 1.2 0 01-.887-.39 1.265 1.265 0 01-.38-.91V11.218c0-.381.118-.702.355-.962.236-.26.54-.39.912-.39h6.182c.371 0 .684.13.937.39s.38.58.38.962v1.977a9.702 9.702 0 013.319-2.471c1.267-.572 2.677-.858 4.231-.858h2.281c.371 0 .675.121.912.364.236.243.354.555.354.936v5.67c0 .347-.118.65-.354.91-.237.26-.541.39-.912.39h-5.118c-1.352 0-2.39.382-3.117 1.145-.726.763-1.089 1.838-1.089 3.226v13.108c0 .382-.127.694-.38.937a1.305 1.305 0 01-.938.364h-6.688zm31.771.52c-2.972 0-5.371-1.023-7.195-3.07-1.824-2.045-2.736-4.94-2.736-8.686V11.167c0-.381.126-.693.38-.936.253-.243.549-.364.887-.364h6.739a1.3 1.3 0 01.937.364c.254.243.38.555.38.936V25.37c0 3.225 1.402 4.837 4.206 4.837 1.351 0 2.407-.424 3.167-1.274.76-.85 1.14-2.038 1.14-3.563V11.167c0-.381.127-.693.38-.936.254-.243.566-.364.938-.364h6.688c.372 0 .676.121.912.364.237.243.355.555.355.936v24.45c0 .346-.118.65-.355.91-.236.26-.54.39-.912.39h-6.182c-.371 0-.684-.122-.937-.364-.253-.243-.38-.555-.38-.937V33.64c-1.757 2.531-4.56 3.797-8.412 3.797zm35.318 0c-4.121 0-7.364-1.136-9.729-3.407-2.364-2.272-3.58-5.575-3.648-9.91v-1.613c.135-4.126 1.385-7.352 3.75-9.675 2.364-2.324 5.557-3.485 9.577-3.485 2.905 0 5.362.598 7.372 1.794 2.01 1.197 3.514 2.844 4.51 4.942.997 2.098 1.495 4.482 1.495 7.153v1.3c0 .382-.127.702-.38.963-.253.26-.566.39-.937.39H180.05v.312c.033 1.56.388 2.818 1.064 3.771.675.954 1.638 1.43 2.888 1.43.811 0 1.461-.164 1.951-.493a6.81 6.81 0 001.393-1.275c.304-.347.549-.563.735-.65.186-.087.481-.13.887-.13h6.638c.304 0 .566.095.785.286.22.19.33.425.33.702 0 .902-.499 1.96-1.495 3.174-.997 1.213-2.449 2.254-4.358 3.12-1.909.868-4.164 1.301-6.765 1.301zm4.003-16.854v-.104c0-1.665-.354-2.957-1.064-3.876-.709-.919-1.706-1.378-2.989-1.378-1.284 0-2.272.46-2.965 1.378-.692.92-1.038 2.211-1.038 3.876v.104h8.056z" fill="#3F4756" /><path fill-rule="evenodd" clip-rule="evenodd" d="M93.249 36.917c-.372 0-.684-.121-.938-.364-.253-.243-.38-.555-.38-.936V8.982h-8.918c-.371 0-.684-.12-.937-.364-.253-.242-.38-.555-.38-.936V1.856c0-.382.127-.702.38-.963.253-.26.566-.39.937-.39h27.515c.372 0 .684.13.937.39.254.26.381.581.381.963v5.826c0 .381-.127.694-.381.936a1.3 1.3 0 01-.937.364h-8.918v26.635c0 .381-.127.693-.38.936a1.305 1.305 0 01-.938.364h-7.043zm23.765 0a1.2 1.2 0 01-.887-.39 1.265 1.265 0 01-.38-.91V11.218c0-.381.118-.702.355-.962.236-.26.54-.39.912-.39h6.182c.371 0 .684.13.937.39s.38.58.38.962v1.977a9.702 9.702 0 013.319-2.471c1.267-.572 2.677-.858 4.231-.858h2.281c.371 0 .675.121.912.364.236.243.354.555.354.936v5.67c0 .347-.118.65-.354.91-.237.26-.541.39-.912.39h-5.118c-1.352 0-2.39.382-3.117 1.145-.726.763-1.089 1.838-1.089 3.226v13.108c0 .382-.127.694-.38.937a1.305 1.305 0 01-.938.364h-6.688zm31.771.52c-2.972 0-5.371-1.023-7.195-3.07-1.824-2.045-2.736-4.94-2.736-8.686V11.167c0-.381.126-.693.38-.936.253-.243.549-.364.887-.364h6.739a1.3 1.3 0 01.937.364c.254.243.38.555.38.936V25.37c0 3.225 1.402 4.837 4.206 4.837 1.351 0 2.407-.424 3.167-1.274.76-.85 1.14-2.038 1.14-3.563V11.167c0-.381.127-.693.38-.936.254-.243.566-.364.938-.364h6.688c.372 0 .676.121.912.364.237.243.355.555.355.936v24.45c0 .346-.118.65-.355.91-.236.26-.54.39-.912.39h-6.182c-.371 0-.684-.122-.937-.364-.253-.243-.38-.555-.38-.937V33.64c-1.757 2.531-4.56 3.797-8.412 3.797zm35.318 0c-4.121 0-7.364-1.136-9.729-3.407-2.364-2.272-3.58-5.575-3.648-9.91v-1.613c.135-4.126 1.385-7.352 3.75-9.675 2.364-2.324 5.557-3.485 9.577-3.485 2.905 0 5.362.598 7.372 1.794 2.01 1.197 3.514 2.844 4.51 4.942.997 2.098 1.495 4.482 1.495 7.153v1.3c0 .382-.127.702-.38.963-.253.26-.566.39-.937.39H180.05v.312c.033 1.56.388 2.818 1.064 3.771.675.954 1.638 1.43 2.888 1.43.811 0 1.461-.164 1.951-.493a6.81 6.81 0 001.393-1.275c.304-.347.549-.563.735-.65.186-.087.481-.13.887-.13h6.638c.304 0 .566.095.785.286.22.19.33.425.33.702 0 .902-.499 1.96-1.495 3.174-.997 1.213-2.449 2.254-4.358 3.12-1.909.868-4.164 1.301-6.765 1.301zm4.003-16.854v-.104c0-1.665-.354-2.957-1.064-3.876-.709-.919-1.706-1.378-2.989-1.378-1.284 0-2.272.46-2.965 1.378-.692.92-1.038 2.211-1.038 3.876v.104h8.056z" fill="#3F4756" /><path fill-rule="evenodd" clip-rule="evenodd" d="M57.37 17.44l1.553-1.396s1.553-1.595 2.33.599c.776 2.192 1.291 5.78-.52 7.672 0 0-2.78-5.48-3.363-6.875z" fill="#D8B212" /><path fill-rule="evenodd" clip-rule="evenodd" d="M8.057 14.848s4.27-4.783 9.513-7.175c5.242-2.391 8.445-2.49 14.075-2.093 5.63.399 10.29-3.388 10.872-5.58 0 0 1.941 1.395.777 4.982 0 0 3.106-1.394 3.883-2.79 0 0 .97 2.392-.583 4.783 0 0 8.543 3.39 11.067 10.365 2.523 6.976 6.018 9.965 6.213 12.755 0 0 .388 2.79-1.554 4.983-1.941 2.192-3.883.598-3.883.598s-2.135-.399-2.912-2.59c0 0-7.183-1.993-10.872.198 0 0-14.755 5.58-8.737-3.587 0 0-4.659 2.59-6.601 5.78-1.941 3.19-8.154 3.986-12.037 1.793-3.883-2.192-4.076-5.779-3.688-9.367.388-3.587-4.854-12.556-11.067-12.955 0 0 .971-.996 5.534-.1z" fill="#FDD835" /><g mask="url(#logo_a)"><path fill-rule="evenodd" clip-rule="evenodd" d="M63.873 30.095s.388 2.791-1.553 4.984c-1.941 2.191-3.883.597-3.883.597s-2.136-.399-2.912-2.59c0 0-7.183-1.993-10.873.198 0 0-14.754 5.58-8.736-3.587 0 0-4.66 2.59-6.6 5.78-1.942 3.19-8.155 3.986-12.038 1.793-3.882-2.191-4.077-5.779-3.689-9.366.388-3.588-4.853-12.557-11.066-12.957 0 0-8.154 13.155 4.854 20.33 0 0 5.047 20.13 31.063 20.928 26.016.797 26.404-20.13 25.433-26.11z" fill="#D1AA02" /></g><path fill-rule="evenodd" clip-rule="evenodd" d="M17.084 16.742s-1.747 10.563 7.96 14.948c0 0 6.407.997 13.008-5.78 0 0 1.391-11.664-7.96-12.557-8.348-.797-13.008 3.389-13.008 3.389z" fill="#BF8D00" /><path fill-rule="evenodd" clip-rule="evenodd" d="M33.199 21.177c0 3.219-2.543 5.83-5.68 5.83-3.136 0-5.678-2.611-5.678-5.83 0-3.22 2.542-5.83 5.678-5.83 3.137 0 5.68 2.61 5.68 5.83z" fill="#fff" /><path fill-rule="evenodd" clip-rule="evenodd" d="M30.718 21.177c0 1.953-1.543 3.537-3.446 3.537-1.903 0-3.446-1.584-3.446-3.537 0-1.954 1.543-3.538 3.446-3.538 1.903 0 3.446 1.584 3.446 3.538z" fill="#3F4756" /><path fill-rule="evenodd" clip-rule="evenodd" d="M26.058 19.134c0 .605-.477 1.096-1.068 1.096-.589 0-1.068-.491-1.068-1.096 0-.606.479-1.097 1.068-1.097.59 0 1.068.49 1.068 1.097zM52.904 17.938c0 .605-.478 1.096-1.068 1.096-.59 0-1.068-.491-1.068-1.096 0-.606.479-1.096 1.068-1.096.59 0 1.068.49 1.068 1.096z" fill="#fff" /><path fill-rule="evenodd" clip-rule="evenodd" d="M48.633 12.43c-6.417.682-5.974 11.133 4.648 16.584 0 0 6.632-2.331 3.54-13.517 0 0-1.77-3.747-8.188-3.066z" fill="#BF8D00" /><path fill-rule="evenodd" clip-rule="evenodd" d="M55.168 19.367c0 2.567-2.028 4.65-4.529 4.65-2.502 0-4.53-2.083-4.53-4.65 0-2.569 2.028-4.65 4.53-4.65 2.501 0 4.53 2.081 4.53 4.65z" fill="#fff" /><path fill-rule="evenodd" clip-rule="evenodd" d="M52.904 19.254c0 1.705-1.347 3.088-3.009 3.088s-3.01-1.383-3.01-3.088c0-1.706 1.348-3.09 3.01-3.09 1.662 0 3.01 1.384 3.01 3.09z" fill="#3F4756" /><path fill-rule="evenodd" clip-rule="evenodd" d="M2.523 18.336s5.63.399 8.737 8.172c0 0-4.077 1.195-7.378 0 0 0-2.135-2.591-1.359-8.172z" fill="#BF8D00" /><path fill-rule="evenodd" clip-rule="evenodd" d="M31.017 5.538s6.258 1.438 8.394 2.234c2.136.798 5.825 1.197 7.183-.796 0 0 1.554-2.193.583-4.784 0 0-1.645 1.633-3.884 2.79 0 0 1.36-2.989-.776-4.982 0 0-2.81 5.893-11.5 5.538z" fill="#FDD835" /><path fill-rule="evenodd" clip-rule="evenodd" d="M44.265 32.886s.194-1.794 1.358-2.192c1.166-.398 6.213-.798 8.737 0 0 0 1.554.597 1.747 2.59.195 1.993-1.164 5.78-4.853 5.78-2.524 0-7.377-1.593-6.99-6.178z" fill="#3F4756" /><path fill-rule="evenodd" clip-rule="evenodd" d="M58.437 35.676s-1.748 10.962-11.455 10.962c0 0-10.348.825-10.318 9.482 0 0 13.618 1.824 21.773-6.519 0 0 6.989-6.352 5.436-19.306 0 0 .369 3.981-2.34 5.479 0 0-1.155.9-3.096-.098z" fill="#BF8D00" /><path fill-rule="evenodd" clip-rule="evenodd" d="M31.31 37.375l.948.861-1.875 1.925s6.212 3.986 13.202 3.588c0 0 4.077 0 6.019-1.993 0 0 .484-1.808.776-2.748 0 0 .97-.043 1.89-.048l-.629 3.293s.609 1.279 3.12 1.039c0 0-.692.656-1.274 1.254 0 0-1.846-.1-3.01-1.296 0 0-8.154 5.979-20.968-2.392L27.27 43.01s1.127-3.642 4.039-5.635z" fill="#3F4756" /><g mask="url(#logo_b)"><path fill-rule="evenodd" clip-rule="evenodd" d="M41.941 60.964s-1.94 1.196-3.3-.199c0 0-5.63 4.583-13.979 6.777 0 0-7.085-9.866-7.085-14.251 0 0 12.62 0 21.064 2.89 0 0 1.942-.996 3.3-.2 0 0 13.947-3.103 18.995-2.106 0 0-1.986 9.176-5.653 13.667 0 0-6.449-2.293-13.342-6.578z" fill="#3F4756" /></g><path fill-rule="evenodd" clip-rule="evenodd" d="M49.808 17.765c0 .828-.654 1.5-1.462 1.5-.806 0-1.46-.672-1.46-1.5s.654-1.5 1.46-1.5c.808 0 1.462.672 1.462 1.5z" fill="#fff" /><path fill-rule="evenodd" clip-rule="evenodd" d="M42.517 0s-1.238 5.816-3.98 7.275L43.45 4.93S44.633 2.05 42.517 0zM47.176 2.192s1.045 2.292-.582 4.784c0 0-1.407 1.17-2.475 1.195 0 0 3.009-3.288 3.057-5.98z" fill="#D8B212" /><path fill-rule="evenodd" clip-rule="evenodd" d="M84.3 67.681a.735.735 0 01-.543-.24.774.774 0 01-.233-.557V46.192c0-.234.072-.43.217-.59a.721.721 0 01.56-.239h9.596c2.63 0 4.586.553 5.87 1.658 1.283 1.105 1.925 2.678 1.925 4.719 0 1.02-.264 1.902-.792 2.646s-1.113 1.286-1.755 1.626c.85.383 1.564 1.015 2.143 1.897.58.882.87 1.876.87 2.981 0 2.147-.688 3.815-2.065 5.006-1.377 1.19-3.35 1.785-5.917 1.785H84.3zm8.945-13.486c.766 0 1.356-.213 1.77-.638.414-.425.621-.978.621-1.658 0-.659-.201-1.196-.605-1.61-.404-.415-1-.622-1.786-.622h-3.882v4.528h3.882zm.28 9.182c.807 0 1.433-.24 1.878-.717.445-.479.668-1.068.668-1.77 0-.723-.228-1.323-.683-1.801-.456-.478-1.077-.718-1.864-.718h-4.161v5.006h4.162zm12.733 4.304a.736.736 0 01-.544-.239.776.776 0 01-.233-.558V46.192c0-.234.073-.43.218-.59a.72.72 0 01.559-.239h8.54c2.733 0 4.871.638 6.413 1.913 1.543 1.275 2.314 3.071 2.314 5.388 0 1.488-.336 2.753-1.009 3.794-.673 1.042-1.6 1.85-2.78 2.423l4.193 7.78a.811.811 0 01.093.35c0 .17-.062.325-.186.463a.601.601 0 01-.466.207h-4.379c-.601 0-1.025-.287-1.273-.86l-3.417-6.92h-2.981v6.983a.76.76 0 01-.233.574.799.799 0 01-.575.223h-4.254zm8.509-12.466c.891 0 1.569-.229 2.035-.686.465-.457.698-1.089.698-1.897 0-.807-.233-1.456-.698-1.944-.466-.49-1.144-.734-2.035-.734h-3.447v5.26h3.447zM136.072 68c-2.94 0-5.259-.733-6.956-2.2-1.698-1.467-2.599-3.624-2.702-6.472a86.168 86.168 0 01-.031-2.742c0-1.233.01-2.158.031-2.774.082-2.806.988-4.968 2.717-6.488 1.729-1.52 4.043-2.28 6.941-2.28 2.878 0 5.182.76 6.91 2.28 1.729 1.52 2.635 3.682 2.718 6.488.041 1.233.062 2.157.062 2.774 0 .638-.021 1.552-.062 2.742-.104 2.848-.999 5.005-2.686 6.472-1.688 1.467-4.002 2.2-6.942 2.2zm.001-4.782c1.076 0 1.935-.335 2.577-1.005.642-.67.984-1.695 1.025-3.077.042-1.232.062-2.114.062-2.646 0-.531-.02-1.392-.062-2.582-.041-1.382-.383-2.407-1.025-3.077-.642-.67-1.501-1.004-2.577-1.004-1.098 0-1.967.334-2.609 1.004-.642.67-.984 1.695-1.025 3.077a79.289 79.289 0 00-.031 2.582c0 1.148.01 2.03.031 2.646.041 1.382.383 2.408 1.025 3.077.642.67 1.511 1.005 2.609 1.005zm13.664 4.463a.796.796 0 01-.574-.223.757.757 0 01-.233-.574V45.841c0-.233.077-.425.233-.574a.796.796 0 01.574-.223h3.789c.228 0 .414.075.559.223.145.15.218.34.218.574v10.65l4.13-4.847c.042-.042.119-.117.233-.223.114-.106.233-.186.357-.24.124-.052.28-.079.466-.079h4.379c.186 0 .347.069.481.207a.721.721 0 01.202.526.71.71 0 01-.217.51l-5.466 6.186 6.242 7.938c.145.192.218.351.218.479a.726.726 0 01-.202.526.685.685 0 01-.513.207h-4.503c-.269 0-.471-.042-.605-.127a2.851 2.851 0 01-.482-.415l-4.72-5.994v5.739a.804.804 0 01-.218.558.721.721 0 01-.559.24h-3.789zm25.125.319c-2.525 0-4.513-.696-5.962-2.088-1.45-1.393-2.195-3.417-2.237-6.074v-.988c.083-2.53.849-4.507 2.299-5.93 1.449-1.425 3.406-2.137 5.869-2.137 1.781 0 3.287.367 4.519 1.1a6.898 6.898 0 012.764 3.029c.611 1.286.916 2.747.916 4.384v.797c0 .234-.077.43-.232.59a.772.772 0 01-.575.239h-9.845v.191c.021.957.238 1.727.652 2.312.414.584 1.004.877 1.77.877.497 0 .896-.101 1.196-.303.3-.202.585-.463.854-.781.186-.213.337-.346.45-.399.114-.053.295-.08.544-.08h4.068a.71.71 0 01.482.176.55.55 0 01.202.43c0 .553-.306 1.201-.917 1.945-.61.744-1.501 1.381-2.67 1.913-1.17.531-2.552.797-4.147.797zm2.454-10.33v-.064c0-1.02-.217-1.812-.652-2.375-.435-.564-1.046-.845-1.832-.845-.787 0-1.393.281-1.817.845-.425.563-.637 1.355-.637 2.375v.064h4.938zm9.286 10.011a.734.734 0 01-.543-.24.772.772 0 01-.233-.557V51.931c0-.234.072-.43.217-.59a.72.72 0 01.559-.24h3.789c.228 0 .419.08.575.24.155.16.233.356.233.59v1.211a5.934 5.934 0 012.034-1.514c.776-.35 1.641-.526 2.593-.526h1.398c.227 0 .414.074.559.223.145.149.217.34.217.574v3.475a.803.803 0 01-.217.558.722.722 0 01-.559.24h-3.137c-.828 0-1.465.233-1.91.7-.445.468-.668 1.127-.668 1.977v8.035a.76.76 0 01-.233.574.798.798 0 01-.574.223h-4.1z" fill="#3F4756" /></symbol><mask id="logo_a" maskUnits="userSpaceOnUse" x="0" y="14" width="65" height="43"><path fill-rule="evenodd" clip-rule="evenodd" d="M0 14.947h64.136v41.28H0v-41.28z" fill="#fff" /></mask><mask id="logo_b" maskUnits="userSpaceOnUse" x="17" y="53" width="44" height="15"><path fill-rule="evenodd" clip-rule="evenodd" d="M17.577 53.29h43.36v14.251h-43.36v-14.25z" fill="#fff" /></mask><symbol fill="none" viewBox="0 0 20 20" id="loupe-icon"><path fill-rule="evenodd" clip-rule="evenodd" d="M2.999 8.994a6.004 6.004 0 015.998-5.996 6.004 6.004 0 015.998 5.996 6.004 6.004 0 01-5.998 5.996A6.004 6.004 0 013 8.994zm16.56 8.446l-3.24-3.231a8.944 8.944 0 001.675-5.215C17.994 4.027 13.967 0 8.997 0 4.03 0 0 4.027 0 8.994s4.029 8.994 8.997 8.994c1.938 0 3.73-.619 5.198-1.662l3.246 3.236a1.495 1.495 0 002.12-.003 1.496 1.496 0 00-.002-2.119z" fill="#3F4756" /></symbol><symbol fill="none" viewBox="0 0 16 16" id="sort-icon"><path fill-rule="evenodd" clip-rule="evenodd" d="M8 12L12 4H4L8 12Z" fill="#3B3C3C" fill-opacity=".6" /></symbol><symbol fill="none" viewBox="0 0 15 15" id="table-check-icon"><path d="M1 7.56614L5.96661 13L14 1" stroke="#70D21E" stroke-width="2" stroke-linecap="round" /></symbol><symbol fill="none" viewBox="0 0 19 16" id="tg"><path fill-rule="evenodd" clip-rule="evenodd" d="M14.554 15.823a.925.925 0 001.45-.556C16.69 12 18.36 3.731 18.985.76A.628.628 0 0018.15.04C14.83 1.282 4.608 5.158.43 6.72a.661.661 0 00.04 1.25 334.8 334.8 0 014.333 1.355s1.15 3.508 1.749 5.292c.075.224.249.4.477.46a.68.68 0 00.642-.165l2.451-2.338s2.828 2.095 4.432 3.25zM5.838 8.882l1.33 4.43.294-2.805 8.063-7.35a.224.224 0 00-.271-.352L5.838 8.882z" fill="#3F4756" /></symbol><symbol fill="none" viewBox="0 0 23 13" id="vk"><path fill-rule="evenodd" clip-rule="evenodd" d="M12.408 12.348s.408-.043.617-.259c.192-.198.186-.57.186-.57s-.027-1.744.814-2c.83-.253 1.895 1.684 3.023 2.43.854.563 1.503.44 1.503.44l3.018-.04s1.578-.095.83-1.289c-.062-.097-.437-.883-2.244-2.496-1.893-1.69-1.64-1.417.64-4.339 1.388-1.78 1.944-2.865 1.77-3.33C22.4.45 21.379.567 21.379.567l-3.399.02s-.252-.033-.439.075c-.182.105-.3.35-.3.35s-.538 1.377-1.255 2.548c-1.513 2.471-2.118 2.602-2.365 2.449-.575-.358-.431-1.437-.431-2.204 0-2.394.377-3.393-.736-3.651-.37-.086-.642-.143-1.586-.152-1.213-.012-2.24.003-2.82.277-.387.183-.685.588-.503.611.225.03.733.132 1.003.485.348.456.336 1.48.336 1.48s.2 2.818-.468 3.168c-.458.24-1.086-.25-2.435-2.492-.691-1.148-1.213-2.418-1.213-2.418s-.1-.237-.28-.364C4.27.596 3.966.548 3.966.548l-3.23.02S.252.58.074.784c-.159.18-.013.553-.013.553s2.528 5.688 5.39 8.555c2.626 2.629 5.607 2.456 5.607 2.456h1.35z" fill="#3F4756" /></symbol></defs></svg>